<svg width="2682" height="2020" xmlns="http://www.w3.org/2000/svg" xmlns:xlink="http://www.w3.org/1999/xlink" xml:space="preserve" overflow="hidden"><g transform="translate(-1337 -254)"><rect x="1394.5" y="417.5" width="1175" height="756" stroke="#000000" stroke-width="4.58333" stroke-miterlimit="8" fill="none"/><path d="M1397 958C1582.99 956.567 1768.98 955.134 1895.64 865.134 2022.31 775.134 2089.65 596.567 2157 418" stroke="#000000" stroke-width="2.29167" stroke-miterlimit="8" fill="none" fill-rule="evenodd"/><path d="M1397 731C1497.98 724.703 1598.97 718.406 1668.97 665.739 1738.97 613.073 1777.98 514.036 1817 415" stroke="#000000" stroke-width="2.29167" stroke-miterlimit="8" fill="none" fill-rule="evenodd"/><text font-family="Calibri,Calibri_MSFontService,sans-serif" font-weight="400" font-size="64" transform="matrix(1 0 0 1 1914.49 1150)">western boundary layer</text><text font-family="Calibri Light,Calibri Light_MSFontService,sans-serif" font-weight="300" font-size="73" transform="matrix(1 0 0 1 1456.41 523)">High </text><path d="M1631.94 493.004C1630.79 493.004 1629.67 493.366 1628.57 494.091 1627.46 494.816 1626.23 496.016 1624.88 497.691 1623.52 499.366 1622.42 501.083 1621.56 502.842 1620.71 504.6 1619.98 506.846 1619.39 509.579L1619.07 511.076C1618.71 512.739 1618.53 514.355 1618.53 515.923 1618.53 517.801 1618.94 519.155 1619.76 519.987 1620.58 520.819 1621.94 521.234 1623.84 521.234 1624.82 521.234 1625.75 521.074 1626.62 520.753 1627.5 520.432 1628.4 519.904 1629.32 519.167 1630.23 518.43 1631.1 517.462 1631.92 516.262 1632.74 515.062 1633.49 513.583 1634.18 511.824 1634.87 510.066 1635.4 508.183 1635.79 506.175 1636.17 504.167 1636.36 502.248 1636.36 500.418 1636.36 497.947 1636.01 496.093 1635.3 494.857 1634.6 493.622 1633.48 493.004 1631.94 493.004ZM1625.7 472.508 1627.77 472.508 1621.49 497.459 1621.96 497.602C1624.26 494.513 1626.42 492.279 1628.44 490.901 1630.46 489.523 1632.48 488.833 1634.5 488.833 1637.09 488.833 1639.11 489.82 1640.54 491.792 1641.98 493.764 1642.7 496.545 1642.7 500.133 1642.7 504.054 1641.91 507.909 1640.33 511.699 1638.75 515.49 1636.56 518.496 1633.75 520.718 1630.95 522.939 1627.81 524.05 1624.34 524.05 1621.18 524.05 1618.38 523.278 1615.93 521.733L1612.65 524.05 1610.37 523.48 1619.6 482.738C1620.15 480.314 1620.42 478.556 1620.42 477.463 1620.42 476.465 1620.12 475.764 1619.51 475.36 1618.91 474.956 1617.82 474.73 1616.25 474.683L1616.68 472.829Z" fill-rule="evenodd"/><text fill="#000000" fill-opacity="0" font-family="Arial,Arial_MSFontService,sans-serif" font-size="51.542" x="1610.37" y="517.608">ğ‘</text><path d="M1646.23 512.566 1653.7 512.566 1655.72 533.579C1656.83 531.871 1657.8 530.327 1658.65 528.947 1659.49 527.567 1660.24 526.299 1660.87 525.143 1661.51 523.987 1662.06 522.917 1662.53 521.934 1663 520.95 1663.39 520.01 1663.71 519.113 1664.03 518.216 1664.29 517.336 1664.51 516.473 1664.73 515.611 1664.91 514.722 1665.07 513.808L1665.38 512.566 1669.52 512.566 1671.77 533.579C1674.62 529.698 1676.77 526.303 1678.23 523.396 1679.68 520.489 1680.41 518.164 1680.41 516.422 1680.41 515.663 1680.23 515.128 1679.87 514.817 1679.51 514.507 1678.85 514.308 1677.9 514.222L1678.21 512.566 1685.51 512.566 1686.42 514.067C1685.69 515.947 1684.89 517.802 1684.02 519.631 1683.15 521.459 1682.13 523.362 1680.96 525.337 1679.78 527.312 1678.41 529.404 1676.84 531.613 1675.27 533.821 1673.42 536.236 1671.3 538.859L1667.99 538.859 1665.89 520.899C1664.76 523.521 1663.32 526.316 1661.59 529.283 1659.85 532.251 1657.81 535.443 1655.46 538.859L1651.69 538.859 1649.25 519.32C1649.12 518.285 1648.99 517.452 1648.89 516.823 1648.79 516.193 1648.63 515.701 1648.41 515.348 1648.2 514.994 1647.89 514.74 1647.49 514.584 1647.1 514.429 1646.55 514.308 1645.84 514.222Z" fill-rule="evenodd"/><text fill="#000000" fill-opacity="0" font-family="Arial,Arial_MSFontService,sans-serif" font-size="26.293" x="1645.84" y="535.572">ğ‘¤</text><path d="M1660.04 471.7 1663.46 471.7 1662.7 479.8 1669.36 475.116 1671.04 478.015 1663.66 481.457 1671.04 484.924 1669.36 487.797 1662.7 483.113 1663.46 491.213 1660.04 491.213 1660.82 483.113 1654.14 487.797 1652.43 484.924 1659.83 481.457 1652.43 478.015 1654.14 475.116 1660.82 479.8Z" fill-rule="evenodd"/><text fill="#000000" fill-opacity="0" font-family="Arial,Arial_MSFontService,sans-serif" font-size="19.5127" x="1652.43" y="488.774">âˆ—</text><text font-family="Calibri Light,Calibri Light_MSFontService,sans-serif" font-weight="300" font-size="73" transform="matrix(1 0 0 1 2242.83 523)">Low </text><path d="M2404.23 493.004C2403.09 493.004 2401.97 493.366 2400.86 494.091 2399.76 494.816 2398.53 496.016 2397.17 497.691 2395.82 499.366 2394.71 501.083 2393.86 502.842 2393 504.6 2392.28 506.846 2391.68 509.579L2391.36 511.076C2391.01 512.739 2390.83 514.355 2390.83 515.923 2390.83 517.801 2391.24 519.155 2392.06 519.987 2392.88 520.819 2394.24 521.234 2396.14 521.234 2397.11 521.234 2398.04 521.074 2398.92 520.753 2399.8 520.432 2400.7 519.904 2401.61 519.167 2402.53 518.43 2403.39 517.462 2404.21 516.262 2405.03 515.062 2405.79 513.583 2406.48 511.824 2407.17 510.066 2407.7 508.183 2408.08 506.175 2408.46 504.167 2408.65 502.248 2408.65 500.418 2408.65 497.947 2408.3 496.093 2407.6 494.857 2406.9 493.622 2405.78 493.004 2404.23 493.004ZM2397.99 472.508 2400.06 472.508 2393.79 497.459 2394.25 497.602C2396.56 494.513 2398.72 492.279 2400.74 490.901 2402.76 489.523 2404.78 488.833 2406.8 488.833 2409.39 488.833 2411.4 489.82 2412.84 491.792 2414.28 493.764 2415 496.545 2415 500.133 2415 504.054 2414.21 507.909 2412.63 511.699 2411.05 515.49 2408.85 518.496 2406.05 520.718 2403.25 522.939 2400.11 524.05 2396.64 524.05 2393.48 524.05 2390.67 523.278 2388.23 521.733L2384.95 524.05 2382.67 523.48 2391.9 482.738C2392.44 480.314 2392.72 478.556 2392.72 477.463 2392.72 476.465 2392.42 475.764 2391.81 475.36 2391.2 474.956 2390.12 474.73 2388.55 474.683L2388.98 472.829Z" fill-rule="evenodd"/><text fill="#000000" fill-opacity="0" font-family="Arial,Arial_MSFontService,sans-serif" font-size="51.542" x="2382.67" y="517.608">ğ‘</text><path d="M2418.52 512.566 2426 512.566 2428.02 533.579C2429.12 531.871 2430.1 530.327 2430.94 528.947 2431.79 527.567 2432.53 526.299 2433.17 525.143 2433.81 523.987 2434.36 522.917 2434.83 521.934 2435.29 520.95 2435.68 520.01 2436 519.113 2436.32 518.216 2436.59 517.336 2436.8 516.473 2437.02 515.611 2437.21 514.722 2437.36 513.808L2437.67 512.566 2441.81 512.566 2444.06 533.579C2446.91 529.698 2449.06 526.303 2450.52 523.396 2451.98 520.489 2452.71 518.164 2452.71 516.422 2452.71 515.663 2452.53 515.128 2452.16 514.817 2451.8 514.507 2451.15 514.308 2450.2 514.222L2450.51 512.566 2457.81 512.566 2458.71 514.067C2457.99 515.947 2457.19 517.802 2456.32 519.631 2455.45 521.459 2454.42 523.362 2453.25 525.337 2452.08 527.312 2450.71 529.404 2449.14 531.613 2447.57 533.821 2445.72 536.236 2443.6 538.859L2440.29 538.859 2438.19 520.899C2437.05 523.521 2435.61 526.316 2433.88 529.283 2432.15 532.251 2430.11 535.443 2427.76 538.859L2423.98 538.859 2421.55 519.32C2421.41 518.285 2421.29 517.452 2421.19 516.823 2421.08 516.193 2420.92 515.701 2420.71 515.348 2420.49 514.994 2420.19 514.74 2419.79 514.584 2419.39 514.429 2418.84 514.308 2418.13 514.222Z" fill-rule="evenodd"/><text fill="#000000" fill-opacity="0" font-family="Arial,Arial_MSFontService,sans-serif" font-size="26.293" x="2418.13" y="535.572">ğ‘¤</text><path d="M2432.33 471.7 2435.75 471.7 2435 479.8 2441.65 475.116 2443.33 478.015 2435.96 481.457 2443.33 484.924 2441.65 487.797 2435 483.113 2435.75 491.213 2432.33 491.213 2433.11 483.113 2426.43 487.797 2424.73 484.924 2432.13 481.457 2424.73 478.015 2426.43 475.116 2433.11 479.8Z" fill-rule="evenodd"/><text fill="#000000" fill-opacity="0" font-family="Arial,Arial_MSFontService,sans-serif" font-size="19.5127" x="2424.73" y="488.774">âˆ—</text><rect x="1397.5" y="1360.5" width="1176" height="757" stroke="#000000" stroke-width="4.58333" stroke-miterlimit="8" fill="none"/><path d="M1401 1902C1586.74 1900.57 1772.49 1899.13 1898.99 1809.13 2025.49 1719.13 2092.74 1540.57 2160 1362" stroke="#000000" stroke-width="2.29167" stroke-miterlimit="8" fill="none" fill-rule="evenodd"/><path d="M1401 1675C1501.74 1668.7 1602.49 1662.41 1672.32 1609.74 1742.15 1557.07 1781.08 1458.04 1820 1359" stroke="#000000" stroke-width="2.29167" stroke-miterlimit="8" fill="none" fill-rule="evenodd"/><text font-family="Calibri,Calibri_MSFontService,sans-serif" font-weight="400" font-size="64" transform="matrix(1 0 0 1 1942.33 2095)">eastern boundary layer</text><text font-family="Calibri Light,Calibri Light_MSFontService,sans-serif" font-weight="300" font-size="73" transform="matrix(1 0 0 1 1467 1467)">High </text><path d="M1642.52 1436.6C1641.38 1436.6 1640.26 1436.96 1639.16 1437.68 1638.05 1438.41 1636.82 1439.61 1635.47 1441.28 1634.11 1442.96 1633.01 1444.68 1632.15 1446.44 1631.3 1448.19 1630.57 1450.44 1629.98 1453.17L1629.66 1454.67C1629.3 1456.33 1629.12 1457.95 1629.12 1459.52 1629.12 1461.39 1629.53 1462.75 1630.35 1463.58 1631.17 1464.41 1632.53 1464.83 1634.43 1464.83 1635.41 1464.83 1636.33 1464.67 1637.21 1464.35 1638.09 1464.03 1638.99 1463.5 1639.9 1462.76 1640.82 1462.02 1641.69 1461.06 1642.51 1459.86 1643.33 1458.66 1644.08 1457.18 1644.77 1455.42 1645.46 1453.66 1645.99 1451.78 1646.37 1449.77 1646.75 1447.76 1646.94 1445.84 1646.94 1444.01 1646.94 1441.54 1646.59 1439.69 1645.89 1438.45 1645.19 1437.22 1644.07 1436.6 1642.52 1436.6ZM1636.29 1416.1 1638.35 1416.1 1632.08 1441.05 1632.54 1441.2C1634.85 1438.11 1637.01 1435.87 1639.03 1434.49 1641.05 1433.12 1643.07 1432.43 1645.09 1432.43 1647.68 1432.43 1649.69 1433.41 1651.13 1435.39 1652.57 1437.36 1653.29 1440.14 1653.29 1443.73 1653.29 1447.65 1652.5 1451.5 1650.92 1455.29 1649.34 1459.08 1647.15 1462.09 1644.34 1464.31 1641.54 1466.53 1638.4 1467.64 1634.93 1467.64 1631.77 1467.64 1628.97 1466.87 1626.52 1465.33L1623.24 1467.64 1620.96 1467.07 1630.19 1426.33C1630.74 1423.91 1631.01 1422.15 1631.01 1421.06 1631.01 1420.06 1630.71 1419.36 1630.1 1418.95 1629.5 1418.55 1628.41 1418.32 1626.84 1418.28L1627.27 1416.42Z" fill-rule="evenodd"/><text fill="#000000" fill-opacity="0" font-family="Arial,Arial_MSFontService,sans-serif" font-size="51.542" x="1620.96" y="1461.2">ğ‘</text><path d="M1673.3 1458.18C1672.35 1458.18 1671.41 1458.41 1670.49 1458.88 1669.57 1459.34 1668.7 1460 1667.88 1460.86 1667.06 1461.71 1666.31 1462.75 1665.64 1463.96 1664.97 1465.18 1664.41 1466.54 1663.96 1468.04 1666.15 1468.02 1668.03 1467.85 1669.61 1467.52 1671.19 1467.19 1672.48 1466.74 1673.49 1466.17 1674.5 1465.6 1675.24 1464.93 1675.72 1464.16 1676.19 1463.38 1676.43 1462.53 1676.43 1461.59 1676.43 1460.52 1676.16 1459.69 1675.63 1459.08 1675.09 1458.48 1674.32 1458.18 1673.3 1458.18ZM1674.41 1455.62C1676.62 1455.62 1678.3 1456.1 1679.45 1457.06 1680.59 1458.03 1681.17 1459.4 1681.17 1461.18 1681.17 1467.43 1675.26 1470.55 1663.44 1470.55 1663.35 1471 1663.28 1471.48 1663.23 1472.01 1663.18 1472.54 1663.15 1473.11 1663.15 1473.73 1663.15 1475.61 1663.54 1476.98 1664.31 1477.85 1665.07 1478.71 1666.27 1479.14 1667.89 1479.14 1668.74 1479.14 1669.54 1479.05 1670.3 1478.87 1671.06 1478.69 1671.8 1478.41 1672.54 1478.03 1673.27 1477.65 1674.01 1477.16 1674.75 1476.56 1675.49 1475.97 1676.27 1475.26 1677.08 1474.43L1679.02 1476.53C1677.02 1478.51 1675.02 1480 1673.03 1481 1671.03 1482 1668.89 1482.5 1666.6 1482.5 1665.25 1482.5 1664.06 1482.3 1663.01 1481.9 1661.97 1481.49 1661.09 1480.9 1660.37 1480.12 1659.66 1479.35 1659.11 1478.4 1658.74 1477.29 1658.37 1476.18 1658.19 1474.92 1658.19 1473.52 1658.19 1472.54 1658.27 1471.52 1658.44 1470.46 1658.62 1469.4 1658.88 1468.34 1659.25 1467.27 1659.61 1466.21 1660.06 1465.18 1660.59 1464.17 1661.13 1463.16 1661.76 1462.21 1662.48 1461.33 1663.93 1459.54 1665.68 1458.14 1667.72 1457.13 1669.77 1456.12 1672 1455.62 1674.41 1455.62Z" fill-rule="evenodd"/><text fill="#000000" fill-opacity="0" font-family="Arial,Arial_MSFontService,sans-serif" font-size="26.8882" x="1658.19" y="1479.14">ğ‘’</text><path d="M1670.63 1415.29 1674.04 1415.29 1673.29 1423.39 1679.94 1418.71 1681.63 1421.61 1674.25 1425.05 1681.63 1428.52 1679.94 1431.39 1673.29 1426.71 1674.04 1434.81 1670.63 1434.81 1671.4 1426.71 1664.73 1431.39 1663.02 1428.52 1670.42 1425.05 1663.02 1421.61 1664.73 1418.71 1671.4 1423.39Z" fill-rule="evenodd"/><text fill="#000000" fill-opacity="0" font-family="Arial,Arial_MSFontService,sans-serif" font-size="19.5127" x="1663.02" y="1432.37">âˆ—</text><text font-family="Calibri Light,Calibri Light_MSFontService,sans-serif" font-weight="300" font-size="73" transform="matrix(1 0 0 1 2253.41 1467)">Low </text><path d="M2414.82 1436.6C2413.68 1436.6 2412.56 1436.96 2411.45 1437.68 2410.35 1438.41 2409.12 1439.61 2407.76 1441.28 2406.41 1442.96 2405.3 1444.68 2404.45 1446.44 2403.59 1448.19 2402.87 1450.44 2402.27 1453.17L2401.95 1454.67C2401.6 1456.33 2401.42 1457.95 2401.42 1459.52 2401.42 1461.39 2401.83 1462.75 2402.65 1463.58 2403.47 1464.41 2404.83 1464.83 2406.73 1464.83 2407.7 1464.83 2408.63 1464.67 2409.51 1464.35 2410.39 1464.03 2411.28 1463.5 2412.2 1462.76 2413.11 1462.02 2413.98 1461.06 2414.8 1459.86 2415.62 1458.66 2416.38 1457.18 2417.07 1455.42 2417.75 1453.66 2418.29 1451.78 2418.67 1449.77 2419.05 1447.76 2419.24 1445.84 2419.24 1444.01 2419.24 1441.54 2418.89 1439.69 2418.19 1438.45 2417.49 1437.22 2416.36 1436.6 2414.82 1436.6ZM2408.58 1416.1 2410.65 1416.1 2404.38 1441.05 2404.84 1441.2C2407.14 1438.11 2409.31 1435.87 2411.33 1434.49 2413.35 1433.12 2415.37 1432.43 2417.39 1432.43 2419.98 1432.43 2421.99 1433.41 2423.43 1435.39 2424.87 1437.36 2425.58 1440.14 2425.58 1443.73 2425.58 1447.65 2424.79 1451.5 2423.21 1455.29 2421.63 1459.08 2419.44 1462.09 2416.64 1464.31 2413.83 1466.53 2410.7 1467.64 2407.23 1467.64 2404.07 1467.64 2401.26 1466.87 2398.82 1465.33L2395.54 1467.64 2393.25 1467.07 2402.49 1426.33C2403.03 1423.91 2403.31 1422.15 2403.31 1421.06 2403.31 1420.06 2403 1419.36 2402.4 1418.95 2401.79 1418.55 2400.7 1418.32 2399.14 1418.28L2399.56 1416.42Z" fill-rule="evenodd"/><text fill="#000000" fill-opacity="0" font-family="Arial,Arial_MSFontService,sans-serif" font-size="51.542" x="2393.25" y="1461.2">ğ‘</text><path d="M2445.59 1458.18C2444.65 1458.18 2443.71 1458.41 2442.79 1458.88 2441.86 1459.34 2440.99 1460 2440.17 1460.86 2439.35 1461.71 2438.61 1462.75 2437.93 1463.96 2437.26 1465.18 2436.7 1466.54 2436.25 1468.04 2438.44 1468.02 2440.33 1467.85 2441.91 1467.52 2443.49 1467.19 2444.78 1466.74 2445.79 1466.17 2446.8 1465.6 2447.54 1464.93 2448.01 1464.16 2448.49 1463.38 2448.73 1462.53 2448.73 1461.59 2448.73 1460.52 2448.46 1459.69 2447.92 1459.08 2447.39 1458.48 2446.61 1458.18 2445.59 1458.18ZM2446.71 1455.62C2448.92 1455.62 2450.59 1456.1 2451.74 1457.06 2452.89 1458.03 2453.46 1459.4 2453.46 1461.18 2453.46 1467.43 2447.55 1470.55 2435.73 1470.55 2435.65 1471 2435.58 1471.48 2435.53 1472.01 2435.48 1472.54 2435.45 1473.11 2435.45 1473.73 2435.45 1475.61 2435.83 1476.98 2436.6 1477.85 2437.37 1478.71 2438.56 1479.14 2440.19 1479.14 2441.03 1479.14 2441.83 1479.05 2442.59 1478.87 2443.35 1478.69 2444.1 1478.41 2444.83 1478.03 2445.56 1477.65 2446.3 1477.16 2447.04 1476.56 2447.79 1475.97 2448.56 1475.26 2449.37 1474.43L2451.31 1476.53C2449.31 1478.51 2447.32 1480 2445.32 1481 2443.33 1482 2441.19 1482.5 2438.89 1482.5 2437.55 1482.5 2436.35 1482.3 2435.31 1481.9 2434.26 1481.49 2433.38 1480.9 2432.67 1480.12 2431.95 1479.35 2431.41 1478.4 2431.04 1477.29 2430.67 1476.18 2430.48 1474.92 2430.48 1473.52 2430.48 1472.54 2430.57 1471.52 2430.74 1470.46 2430.91 1469.4 2431.18 1468.34 2431.54 1467.27 2431.9 1466.21 2432.35 1465.18 2432.89 1464.17 2433.42 1463.16 2434.05 1462.21 2434.78 1461.33 2436.23 1459.54 2437.97 1458.14 2440.02 1457.13 2442.06 1456.12 2444.29 1455.62 2446.71 1455.62Z" fill-rule="evenodd"/><text fill="#000000" fill-opacity="0" font-family="Arial,Arial_MSFontService,sans-serif" font-size="26.8882" x="2430.48" y="1479.14">ğ‘’</text><path d="M2442.92 1415.29 2446.34 1415.29 2445.59 1423.39 2452.24 1418.71 2453.92 1421.61 2446.55 1425.05 2453.92 1428.52 2452.24 1431.39 2445.59 1426.71 2446.34 1434.81 2442.92 1434.81 2443.7 1426.71 2437.02 1431.39 2435.31 1428.52 2442.72 1425.05 2435.31 1421.61 2437.02 1418.71 2443.7 1423.39Z" fill-rule="evenodd"/><text fill="#000000" fill-opacity="0" font-family="Arial,Arial_MSFontService,sans-serif" font-size="19.5127" x="2435.31" y="1432.37">âˆ—</text><path d="M2016 730 1995 730 1995 826 1953 826 1953 730 1932 730 1974 688Z" fill-rule="evenodd"/><path d="M1941 554C1941 535.222 1956.22 520 1975 520 1993.78 520 2009 535.222 2009 554 2009 572.778 1993.78 588 1975 588 1956.22 588 1941 572.778 1941 554Z" stroke="#000000" stroke-width="10.3125" stroke-miterlimit="8" fill="#FFFFFF" fill-rule="evenodd"/><path d="M1963 553.5C1963 547.149 1968.15 542 1974.5 542 1980.85 542 1986 547.149 1986 553.5 1986 559.851 1980.85 565 1974.5 565 1968.15 565 1963 559.851 1963 553.5Z" stroke="#000000" stroke-width="10.3125" stroke-miterlimit="8" fill-rule="evenodd"/><path d="M1937 975C1937 953.461 1954.68 936 1976.5 936 1998.32 936 2016 953.461 2016 975 2016 996.539 1998.32 1014 1976.5 1014 1954.68 1014 1937 996.539 1937 975Z" stroke="#000000" stroke-width="10.3125" stroke-miterlimit="8" fill="#FFFFFF" fill-rule="evenodd"/><path d="M1950.92 953.917 1953.23 951.677 1976.5 975.687 1999.77 951.677 2002.08 953.917 1978.74 978 2002.08 1002.08 1999.77 1004.32 1976.5 980.313 1953.23 1004.32 1950.92 1002.08 1974.26 978Z" stroke="#000000" stroke-width="4.58333" stroke-miterlimit="8" fill-rule="evenodd"/><rect x="2786.5" y="416.5" width="1176" height="756" stroke="#000000" stroke-width="4.58333" stroke-miterlimit="8" fill="none"/><path d="M2789 957C2974.99 955.567 3160.98 870.717 3287.64 780.717 3414.31 690.717 3481.65 595.567 3549 417" stroke="#000000" stroke-width="2.29167" stroke-miterlimit="8" fill="none" fill-rule="evenodd"/><path d="M2789 730C2889.98 723.703 2990.97 717.406 3060.97 664.739 3130.97 612.073 3169.98 513.036 3209 414" stroke="#000000" stroke-width="2.29167" stroke-miterlimit="8" fill="none" fill-rule="evenodd"/><text font-family="Calibri,Calibri_MSFontService,sans-serif" font-weight="400" font-size="64" transform="matrix(1 0 0 1 3287.66 1149)">western boundary layer</text><text font-family="Calibri Light,Calibri Light_MSFontService,sans-serif" font-weight="300" font-size="73" transform="matrix(1 0 0 1 2848.69 522)">High </text><path d="M3024.21 491.826C3023.07 491.826 3021.95 492.189 3020.84 492.913 3019.74 493.638 3018.51 494.838 3017.16 496.514 3015.8 498.189 3014.7 499.906 3013.84 501.664 3012.99 503.423 3012.26 505.668 3011.67 508.401L3011.35 509.898C3010.99 511.561 3010.81 513.177 3010.81 514.746 3010.81 516.623 3011.22 517.977 3012.04 518.809 3012.86 519.641 3014.22 520.057 3016.12 520.057 3017.1 520.057 3018.02 519.896 3018.9 519.576 3019.78 519.255 3020.68 518.726 3021.59 517.989 3022.51 517.253 3023.38 516.284 3024.2 515.084 3025.02 513.884 3025.77 512.405 3026.46 510.647 3027.15 508.888 3027.68 507.005 3028.06 504.997 3028.44 502.989 3028.63 501.07 3028.63 499.24 3028.63 496.769 3028.28 494.915 3027.58 493.68 3026.88 492.444 3025.76 491.826 3024.21 491.826ZM3017.98 471.331 3020.04 471.331 3013.77 496.282 3014.23 496.424C3016.54 493.335 3018.7 491.102 3020.72 489.723 3022.74 488.345 3024.76 487.656 3026.78 487.656 3029.37 487.656 3031.38 488.642 3032.82 490.614 3034.26 492.587 3034.98 495.367 3034.98 498.955 3034.98 502.876 3034.19 506.732 3032.61 510.522 3031.03 514.312 3028.84 517.318 3026.03 519.54 3023.23 521.762 3020.09 522.873 3016.62 522.873 3013.46 522.873 3010.66 522.1 3008.21 520.556L3004.93 522.873 3002.65 522.302 3011.88 481.561C3012.43 479.137 3012.7 477.378 3012.7 476.285 3012.7 475.287 3012.4 474.586 3011.79 474.182 3011.19 473.778 3010.1 473.553 3008.53 473.505L3008.96 471.651Z" fill-rule="evenodd"/><text fill="#000000" fill-opacity="0" font-family="Arial,Arial_MSFontService,sans-serif" font-size="51.542" x="3002.65" y="516.43">ğ‘</text><path d="M3038.5 511.388 3045.98 511.388 3048 532.402C3049.11 530.694 3050.08 529.15 3050.93 527.769 3051.77 526.389 3052.51 525.121 3053.15 523.965 3053.79 522.809 3054.34 521.74 3054.81 520.756 3055.27 519.773 3055.67 518.833 3055.99 517.935 3056.3 517.038 3056.57 516.158 3056.79 515.296 3057 514.433 3057.19 513.545 3057.34 512.63L3057.65 511.388 3061.79 511.388 3064.05 532.402C3066.89 528.52 3069.05 525.125 3070.5 522.218 3071.96 519.311 3072.69 516.987 3072.69 515.244 3072.69 514.485 3072.51 513.95 3072.15 513.64 3071.78 513.329 3071.13 513.131 3070.18 513.044L3070.49 511.388 3077.79 511.388 3078.69 512.889C3077.97 514.77 3077.17 516.624 3076.3 518.453 3075.43 520.282 3074.41 522.184 3073.23 524.159 3072.06 526.135 3070.69 528.227 3069.12 530.435 3067.55 532.643 3065.7 535.059 3063.58 537.681L3060.27 537.681 3058.17 519.721C3057.03 522.343 3055.6 525.138 3053.86 528.106 3052.13 531.073 3050.09 534.265 3047.74 537.681L3043.96 537.681 3041.53 518.142C3041.39 517.107 3041.27 516.275 3041.17 515.645 3041.07 515.015 3040.91 514.524 3040.69 514.17 3040.48 513.816 3040.17 513.562 3039.77 513.407 3039.38 513.251 3038.82 513.131 3038.12 513.044Z" fill-rule="evenodd"/><text fill="#000000" fill-opacity="0" font-family="Arial,Arial_MSFontService,sans-serif" font-size="26.293" x="3038.12" y="534.394">ğ‘¤</text><path d="M3052.32 470.523 3055.73 470.523 3054.98 478.623 3061.63 473.939 3063.32 476.837 3055.94 480.279 3063.32 483.747 3061.63 486.619 3054.98 481.935 3055.73 490.035 3052.32 490.035 3053.09 481.935 3046.42 486.619 3044.71 483.747 3052.11 480.279 3044.71 476.837 3046.42 473.939 3053.09 478.623Z" fill-rule="evenodd"/><text fill="#000000" fill-opacity="0" font-family="Arial,Arial_MSFontService,sans-serif" font-size="19.5127" x="3044.71" y="487.596">âˆ—</text><text font-family="Calibri Light,Calibri Light_MSFontService,sans-serif" font-weight="300" font-size="73" transform="matrix(1 0 0 1 3635.1 522)">Low </text><path d="M3796.51 491.826C3795.37 491.826 3794.25 492.189 3793.14 492.913 3792.04 493.638 3790.81 494.838 3789.45 496.514 3788.1 498.189 3786.99 499.906 3786.14 501.664 3785.28 503.423 3784.56 505.668 3783.96 508.401L3783.64 509.898C3783.28 511.561 3783.11 513.177 3783.11 514.746 3783.11 516.623 3783.52 517.977 3784.34 518.809 3785.16 519.641 3786.52 520.057 3788.42 520.057 3789.39 520.057 3790.32 519.896 3791.2 519.576 3792.08 519.255 3792.97 518.726 3793.89 517.989 3794.8 517.253 3795.67 516.284 3796.49 515.084 3797.31 513.884 3798.07 512.405 3798.75 510.647 3799.44 508.888 3799.98 507.005 3800.36 504.997 3800.74 502.989 3800.93 501.07 3800.93 499.24 3800.93 496.769 3800.58 494.915 3799.88 493.68 3799.18 492.444 3798.05 491.826 3796.51 491.826ZM3790.27 471.331 3792.34 471.331 3786.07 496.282 3786.53 496.424C3788.83 493.335 3791 491.102 3793.02 489.723 3795.04 488.345 3797.06 487.656 3799.08 487.656 3801.67 487.656 3803.68 488.642 3805.12 490.614 3806.55 492.587 3807.27 495.367 3807.27 498.955 3807.27 502.876 3806.48 506.732 3804.9 510.522 3803.32 514.312 3801.13 517.318 3798.33 519.54 3795.52 521.762 3792.39 522.873 3788.92 522.873 3785.76 522.873 3782.95 522.1 3780.5 520.556L3777.23 522.873 3774.94 522.302 3784.18 481.561C3784.72 479.137 3785 477.378 3785 476.285 3785 475.287 3784.69 474.586 3784.09 474.182 3783.48 473.778 3782.39 473.553 3780.83 473.505L3781.25 471.651Z" fill-rule="evenodd"/><text fill="#000000" fill-opacity="0" font-family="Arial,Arial_MSFontService,sans-serif" font-size="51.542" x="3774.94" y="516.43">ğ‘</text><path d="M3810.8 511.388 3818.28 511.388 3820.3 532.402C3821.4 530.694 3822.38 529.15 3823.22 527.769 3824.07 526.389 3824.81 525.121 3825.45 523.965 3826.09 522.809 3826.64 521.74 3827.1 520.756 3827.57 519.773 3827.96 518.833 3828.28 517.935 3828.6 517.038 3828.87 516.158 3829.08 515.296 3829.3 514.433 3829.48 513.545 3829.64 512.63L3829.95 511.388 3834.09 511.388 3836.34 532.402C3839.19 528.52 3841.34 525.125 3842.8 522.218 3844.26 519.311 3844.99 516.987 3844.99 515.244 3844.99 514.485 3844.8 513.95 3844.44 513.64 3844.08 513.329 3843.42 513.131 3842.48 513.044L3842.79 511.388 3850.08 511.388 3850.99 512.889C3850.26 514.77 3849.47 516.624 3848.6 518.453 3847.72 520.282 3846.7 522.184 3845.53 524.159 3844.36 526.135 3842.98 528.227 3841.41 530.435 3839.84 532.643 3838 535.059 3835.88 537.681L3832.56 537.681 3830.47 519.721C3829.33 522.343 3827.89 525.138 3826.16 528.106 3824.42 531.073 3822.38 534.265 3820.04 537.681L3816.26 537.681 3813.83 518.142C3813.69 517.107 3813.57 516.275 3813.47 515.645 3813.36 515.015 3813.2 514.524 3812.99 514.17 3812.77 513.816 3812.46 513.562 3812.07 513.407 3811.67 513.251 3811.12 513.131 3810.41 513.044Z" fill-rule="evenodd"/><text fill="#000000" fill-opacity="0" font-family="Arial,Arial_MSFontService,sans-serif" font-size="26.293" x="3810.41" y="534.394">ğ‘¤</text><path d="M3824.61 470.523 3828.03 470.523 3827.28 478.623 3833.93 473.939 3835.61 476.837 3828.24 480.279 3835.61 483.747 3833.93 486.619 3827.28 481.935 3828.03 490.035 3824.61 490.035 3825.39 481.935 3818.71 486.619 3817 483.747 3824.41 480.279 3817 476.837 3818.71 473.939 3825.39 478.623Z" fill-rule="evenodd"/><text fill="#000000" fill-opacity="0" font-family="Arial,Arial_MSFontService,sans-serif" font-size="19.5127" x="3817" y="487.596">âˆ—</text><rect x="2789.5" y="1359.5" width="1176" height="756" stroke="#000000" stroke-width="4.58333" stroke-miterlimit="8" fill="none"/><path d="M2793 1900.68C2978.99 1899.25 3262.28 1967.29 3388.95 1877.34 3515.61 1787.39 3485.65 1539.46 3553 1361" stroke="#000000" stroke-width="2.29167" stroke-miterlimit="8" fill="none" fill-rule="evenodd"/><path d="M2793 1674C2893.74 1667.68 2994.49 1661.37 3064.32 1608.53 3134.15 1555.7 3173.08 1456.35 3212 1357" stroke="#000000" stroke-width="2.29167" stroke-miterlimit="8" fill="none" fill-rule="evenodd"/><text font-family="Calibri,Calibri_MSFontService,sans-serif" font-weight="400" font-size="64" transform="matrix(1 0 0 1 3326.42 2088)">eastern boundary layer</text><text font-family="Calibri Light,Calibri Light_MSFontService,sans-serif" font-weight="300" font-size="73" transform="matrix(1 0 0 1 2859.28 1466)">High </text><path d="M3034.8 1435.42C3033.66 1435.42 3032.54 1435.78 3031.43 1436.51 3030.33 1437.23 3029.1 1438.43 3027.74 1440.11 3026.39 1441.78 3025.28 1443.5 3024.43 1445.26 3023.57 1447.02 3022.85 1449.26 3022.26 1451.99L3021.93 1453.49C3021.58 1455.16 3021.4 1456.77 3021.4 1458.34 3021.4 1460.22 3021.81 1461.57 3022.63 1462.4 3023.45 1463.23 3024.81 1463.65 3026.71 1463.65 3027.69 1463.65 3028.61 1463.49 3029.49 1463.17 3030.37 1462.85 3031.27 1462.32 3032.18 1461.58 3033.1 1460.85 3033.96 1459.88 3034.78 1458.68 3035.6 1457.48 3036.36 1456 3037.05 1454.24 3037.74 1452.48 3038.27 1450.6 3038.65 1448.59 3039.03 1446.58 3039.22 1444.66 3039.22 1442.83 3039.22 1440.36 3038.87 1438.51 3038.17 1437.27 3037.47 1436.04 3036.35 1435.42 3034.8 1435.42ZM3028.56 1414.92 3030.63 1414.92 3024.36 1439.88 3024.82 1440.02C3027.13 1436.93 3029.29 1434.7 3031.31 1433.32 3033.33 1431.94 3035.35 1431.25 3037.37 1431.25 3039.96 1431.25 3041.97 1432.24 3043.41 1434.21 3044.85 1436.18 3045.57 1438.96 3045.57 1442.55 3045.57 1446.47 3044.78 1450.33 3043.2 1454.12 3041.62 1457.91 3039.42 1460.91 3036.62 1463.13 3033.82 1465.36 3030.68 1466.47 3027.21 1466.47 3024.05 1466.47 3021.25 1465.69 3018.8 1464.15L3015.52 1466.47 3013.24 1465.9 3022.47 1425.15C3023.02 1422.73 3023.29 1420.97 3023.29 1419.88 3023.29 1418.88 3022.99 1418.18 3022.38 1417.78 3021.77 1417.37 3020.69 1417.15 3019.12 1417.1L3019.55 1415.24Z" fill-rule="evenodd"/><text fill="#000000" fill-opacity="0" font-family="Arial,Arial_MSFontService,sans-serif" font-size="51.542" x="3013.24" y="1460.02">ğ‘</text><path d="M3065.58 1457C3064.63 1457 3063.69 1457.23 3062.77 1457.7 3061.85 1458.16 3060.98 1458.82 3060.16 1459.68 3059.34 1460.53 3058.59 1461.57 3057.92 1462.78 3057.24 1464 3056.68 1465.36 3056.23 1466.86 3058.43 1466.84 3060.31 1466.67 3061.89 1466.34 3063.47 1466.01 3064.76 1465.57 3065.77 1465 3066.78 1464.43 3067.52 1463.75 3068 1462.98 3068.47 1462.2 3068.71 1461.35 3068.71 1460.42 3068.71 1459.35 3068.44 1458.51 3067.91 1457.91 3067.37 1457.3 3066.59 1457 3065.58 1457ZM3066.69 1454.44C3068.9 1454.44 3070.58 1454.92 3071.72 1455.89 3072.87 1456.85 3073.44 1458.23 3073.44 1460 3073.44 1466.25 3067.54 1469.37 3055.72 1469.37 3055.63 1469.82 3055.56 1470.31 3055.51 1470.83 3055.46 1471.36 3055.43 1471.93 3055.43 1472.55 3055.43 1474.43 3055.82 1475.81 3056.58 1476.67 3057.35 1477.53 3058.55 1477.96 3060.17 1477.96 3061.01 1477.96 3061.82 1477.87 3062.58 1477.69 3063.33 1477.51 3064.08 1477.23 3064.81 1476.85 3065.55 1476.47 3066.28 1475.98 3067.03 1475.39 3067.77 1474.79 3068.54 1474.08 3069.36 1473.25L3071.3 1475.35C3069.3 1477.33 3067.3 1478.82 3065.31 1479.83 3063.31 1480.83 3061.17 1481.33 3058.87 1481.33 3057.53 1481.33 3056.33 1481.12 3055.29 1480.72 3054.25 1480.31 3053.37 1479.72 3052.65 1478.95 3051.93 1478.17 3051.39 1477.22 3051.02 1476.11 3050.65 1475 3050.46 1473.74 3050.46 1472.35 3050.46 1471.36 3050.55 1470.34 3050.72 1469.28 3050.9 1468.22 3051.16 1467.16 3051.52 1466.1 3051.89 1465.04 3052.34 1464 3052.87 1462.99 3053.41 1461.98 3054.04 1461.04 3054.76 1460.16 3056.21 1458.36 3057.96 1456.96 3060 1455.95 3062.04 1454.94 3064.27 1454.44 3066.69 1454.44Z" fill-rule="evenodd"/><text fill="#000000" fill-opacity="0" font-family="Arial,Arial_MSFontService,sans-serif" font-size="26.8882" x="3050.46" y="1477.97">ğ‘’</text><path d="M3062.91 1414.12 3066.32 1414.12 3065.57 1422.22 3072.22 1417.53 3073.9 1420.43 3066.53 1423.87 3073.9 1427.34 3072.22 1430.21 3065.57 1425.53 3066.32 1433.63 3062.91 1433.63 3063.68 1425.53 3057.01 1430.21 3055.3 1427.34 3062.7 1423.87 3055.3 1420.43 3057.01 1417.53 3063.68 1422.22Z" fill-rule="evenodd"/><text fill="#000000" fill-opacity="0" font-family="Arial,Arial_MSFontService,sans-serif" font-size="19.5127" x="3055.3" y="1431.19">âˆ—</text><text font-family="Calibri Light,Calibri Light_MSFontService,sans-serif" font-weight="300" font-size="73" transform="matrix(1 0 0 1 3645.69 1466)">Low </text><path d="M3807.1 1435.42C3805.96 1435.42 3804.83 1435.78 3803.73 1436.51 3802.62 1437.23 3801.39 1438.43 3800.04 1440.11 3798.69 1441.78 3797.58 1443.5 3796.72 1445.26 3795.87 1447.02 3795.14 1449.26 3794.55 1451.99L3794.23 1453.49C3793.87 1455.16 3793.7 1456.77 3793.7 1458.34 3793.7 1460.22 3794.1 1461.57 3794.92 1462.4 3795.74 1463.23 3797.1 1463.65 3799.01 1463.65 3799.98 1463.65 3800.91 1463.49 3801.79 1463.17 3802.67 1462.85 3803.56 1462.32 3804.48 1461.58 3805.39 1460.85 3806.26 1459.88 3807.08 1458.68 3807.9 1457.48 3808.65 1456 3809.34 1454.24 3810.03 1452.48 3810.57 1450.6 3810.95 1448.59 3811.33 1446.58 3811.52 1444.66 3811.52 1442.83 3811.52 1440.36 3811.17 1438.51 3810.47 1437.27 3809.76 1436.04 3808.64 1435.42 3807.1 1435.42ZM3800.86 1414.92 3802.93 1414.92 3796.65 1439.88 3797.12 1440.02C3799.42 1436.93 3801.58 1434.7 3803.6 1433.32 3805.62 1431.94 3807.64 1431.25 3809.66 1431.25 3812.25 1431.25 3814.27 1432.24 3815.71 1434.21 3817.14 1436.18 3817.86 1438.96 3817.86 1442.55 3817.86 1446.47 3817.07 1450.33 3815.49 1454.12 3813.91 1457.91 3811.72 1460.91 3808.92 1463.13 3806.11 1465.36 3802.97 1466.47 3799.51 1466.47 3796.34 1466.47 3793.54 1465.69 3791.09 1464.15L3787.81 1466.47 3785.53 1465.9 3794.76 1425.15C3795.31 1422.73 3795.58 1420.97 3795.58 1419.88 3795.58 1418.88 3795.28 1418.18 3794.68 1417.78 3794.07 1417.37 3792.98 1417.15 3791.41 1417.1L3791.84 1415.24Z" fill-rule="evenodd"/><text fill="#000000" fill-opacity="0" font-family="Arial,Arial_MSFontService,sans-serif" font-size="51.542" x="3785.53" y="1460.02">ğ‘</text><path d="M3837.87 1457C3836.92 1457 3835.99 1457.23 3835.06 1457.7 3834.14 1458.16 3833.27 1458.82 3832.45 1459.68 3831.63 1460.53 3830.89 1461.57 3830.21 1462.78 3829.54 1464 3828.98 1465.36 3828.53 1466.86 3830.72 1466.84 3832.61 1466.67 3834.19 1466.34 3835.76 1466.01 3837.06 1465.57 3838.07 1465 3839.08 1464.43 3839.82 1463.75 3840.29 1462.98 3840.77 1462.2 3841 1461.35 3841 1460.42 3841 1459.35 3840.74 1458.51 3840.2 1457.91 3839.67 1457.3 3838.89 1457 3837.87 1457ZM3838.99 1454.44C3841.19 1454.44 3842.87 1454.92 3844.02 1455.89 3845.17 1456.85 3845.74 1458.23 3845.74 1460 3845.74 1466.25 3839.83 1469.37 3828.01 1469.37 3827.93 1469.82 3827.86 1470.31 3827.81 1470.83 3827.75 1471.36 3827.73 1471.93 3827.73 1472.55 3827.73 1474.43 3828.11 1475.81 3828.88 1476.67 3829.65 1477.53 3830.84 1477.96 3832.46 1477.96 3833.31 1477.96 3834.11 1477.87 3834.87 1477.69 3835.63 1477.51 3836.38 1477.23 3837.11 1476.85 3837.84 1476.47 3838.58 1475.98 3839.32 1475.39 3840.06 1474.79 3840.84 1474.08 3841.65 1473.25L3843.59 1475.35C3841.59 1477.33 3839.59 1478.82 3837.6 1479.83 3835.61 1480.83 3833.46 1481.33 3831.17 1481.33 3829.82 1481.33 3828.63 1481.12 3827.59 1480.72 3826.54 1480.31 3825.66 1479.72 3824.95 1478.95 3824.23 1478.17 3823.69 1477.22 3823.32 1476.11 3822.95 1475 3822.76 1473.74 3822.76 1472.35 3822.76 1471.36 3822.85 1470.34 3823.02 1469.28 3823.19 1468.22 3823.46 1467.16 3823.82 1466.1 3824.18 1465.04 3824.63 1464 3825.17 1462.99 3825.7 1461.98 3826.33 1461.04 3827.06 1460.16 3828.5 1458.36 3830.25 1456.96 3832.3 1455.95 3834.34 1454.94 3836.57 1454.44 3838.99 1454.44Z" fill-rule="evenodd"/><text fill="#000000" fill-opacity="0" font-family="Arial,Arial_MSFontService,sans-serif" font-size="26.8882" x="3822.76" y="1477.97">ğ‘’</text><path d="M3835.2 1414.12 3838.62 1414.12 3837.87 1422.22 3844.52 1417.53 3846.2 1420.43 3838.82 1423.87 3846.2 1427.34 3844.52 1430.21 3837.87 1425.53 3838.62 1433.63 3835.2 1433.63 3835.98 1425.53 3829.3 1430.21 3827.59 1427.34 3834.99 1423.87 3827.59 1420.43 3829.3 1417.53 3835.98 1422.22Z" fill-rule="evenodd"/><text fill="#000000" fill-opacity="0" font-family="Arial,Arial_MSFontService,sans-serif" font-size="19.5127" x="3827.59" y="1431.19">âˆ—</text><path d="M1455.4 2177.08C1453.54 2177.08 1451.98 2177.63 1450.72 2178.74 1449.46 2179.85 1448.45 2181.44 1447.68 2183.52 1446.91 2185.6 1446.36 2188.14 1446.04 2191.12 1445.72 2194.11 1445.55 2197.48 1445.55 2201.23 1445.55 2210.04 1446.37 2216.51 1448.01 2220.63 1449.64 2224.75 1452.17 2226.81 1455.6 2226.81 1458.87 2226.81 1461.3 2224.87 1462.88 2220.99 1464.46 2217.11 1465.25 2211.11 1465.25 2202.98 1465.25 2196.76 1464.85 2191.73 1464.03 2187.88 1463.22 2184.03 1462.1 2181.27 1460.65 2179.59 1459.21 2177.92 1457.46 2177.08 1455.4 2177.08ZM1455.6 2173.63C1461.52 2173.63 1465.93 2175.92 1468.82 2180.48 1471.71 2185.05 1473.15 2191.95 1473.15 2201.19 1473.15 2210.76 1471.61 2217.99 1468.51 2222.9 1465.42 2227.8 1460.9 2230.25 1454.96 2230.25 1449.12 2230.25 1444.78 2227.95 1441.93 2223.36 1439.08 2218.77 1437.65 2211.8 1437.65 2202.45 1437.65 2197.48 1438.09 2193.18 1438.97 2189.56 1439.85 2185.94 1441.08 2182.95 1442.66 2180.58 1444.24 2178.22 1446.14 2176.47 1448.35 2175.34 1450.57 2174.2 1452.98 2173.63 1455.6 2173.63ZM1412.6 2173.63 1414.83 2173.63C1414.67 2176.23 1414.59 2179.82 1414.59 2184.41L1414.59 2219.03C1414.59 2220.59 1414.68 2221.77 1414.85 2222.57 1415.03 2223.37 1415.34 2224.02 1415.79 2224.52 1416.23 2225.02 1416.87 2225.41 1417.71 2225.69 1418.55 2225.98 1419.6 2226.19 1420.87 2226.34 1422.14 2226.49 1423.82 2226.59 1425.9 2226.64L1425.9 2229.6 1395.95 2229.6 1395.95 2226.64C1398.95 2226.51 1401.09 2226.33 1402.37 2226.1 1403.65 2225.87 1404.63 2225.52 1405.31 2225.06 1405.98 2224.6 1406.48 2223.96 1406.79 2223.12 1407.1 2222.28 1407.25 2220.92 1407.25 2219.03L1407.25 2186.16C1407.25 2185.08 1407.07 2184.29 1406.69 2183.79 1406.31 2183.29 1405.75 2183.04 1405.03 2183.04 1404.16 2183.04 1402.93 2183.48 1401.34 2184.37 1399.74 2185.27 1397.77 2186.5 1395.42 2188.06L1393.64 2184.94Z" fill-rule="evenodd"/><text fill="#000000" fill-opacity="0" font-family="Arial,Arial_MSFontService,sans-serif" font-size="56.6167" x="1393.64" y="2223.17">10</text><path d="M1491.55 2176.02C1489.86 2176.02 1488.49 2176.57 1487.44 2177.67 1486.39 2178.77 1485.86 2180.2 1485.86 2181.94 1485.86 2183.71 1486.4 2185.15 1487.46 2186.26 1488.52 2187.38 1489.88 2187.93 1491.55 2187.93 1492.65 2187.93 1493.63 2187.68 1494.5 2187.19 1495.38 2186.69 1496.06 2185.98 1496.54 2185.06 1497.03 2184.13 1497.27 2183.1 1497.27 2181.94 1497.27 2180.79 1497.03 2179.77 1496.54 2178.86 1496.06 2177.96 1495.38 2177.26 1494.52 2176.76 1493.65 2176.27 1492.66 2176.02 1491.55 2176.02ZM1491.73 2172.44C1493.54 2172.44 1495.16 2172.85 1496.59 2173.65 1498.02 2174.45 1499.12 2175.59 1499.91 2177.04 1500.69 2178.5 1501.08 2180.14 1501.08 2181.94 1501.08 2183.75 1500.67 2185.39 1499.85 2186.86 1499.02 2188.33 1497.87 2189.47 1496.39 2190.28 1494.91 2191.1 1493.25 2191.51 1491.4 2191.51 1489.54 2191.51 1487.89 2191.08 1486.46 2190.24 1485.03 2189.4 1483.94 2188.25 1483.18 2186.8 1482.43 2185.35 1482.05 2183.72 1482.05 2181.91 1482.05 2180.21 1482.45 2178.63 1483.26 2177.18 1484.06 2175.73 1485.21 2174.58 1486.7 2173.72 1488.19 2172.87 1489.86 2172.44 1491.73 2172.44Z" fill-rule="evenodd"/><text fill="#000000" fill-opacity="0" font-family="Arial,Arial_MSFontService,sans-serif" font-size="19.0625" x="1482.05" y="2189.12">âˆ˜</text><path d="M1513.17 2174.28 1525.86 2174.28 1545.88 2207.68C1546.85 2209.3 1547.67 2210.72 1548.33 2211.93 1548.99 2213.15 1549.67 2214.51 1550.38 2216.03L1550.9 2216.03C1550.77 2214.38 1550.65 2211.1 1550.54 2206.2 1550.43 2201.29 1550.38 2196.87 1550.38 2192.93L1550.38 2184.41C1550.38 2182.55 1550.32 2181.19 1550.22 2180.32 1550.11 2179.46 1549.91 2178.79 1549.63 2178.34 1549.34 2177.88 1548.95 2177.5 1548.45 2177.22 1547.95 2176.94 1547.08 2176.62 1545.84 2176.27L1545.84 2174.28 1560.43 2174.28 1560.43 2176.27C1559.21 2176.59 1558.35 2176.89 1557.85 2177.16 1557.35 2177.43 1556.95 2177.78 1556.64 2178.21 1556.33 2178.65 1556.09 2179.29 1555.93 2180.16 1555.77 2181.02 1555.69 2182.44 1555.69 2184.41L1555.69 2229.85 1550.62 2229.85 1528.05 2191.99C1526.64 2189.64 1525.64 2187.93 1525.05 2186.85 1524.45 2185.77 1523.9 2184.7 1523.39 2183.64L1522.7 2183.64C1522.89 2185.73 1523.02 2189.49 1523.1 2194.93 1523.18 2200.38 1523.22 2205.8 1523.22 2211.2L1523.22 2219.47C1523.22 2221.28 1523.28 2222.6 1523.41 2223.44 1523.53 2224.28 1523.73 2224.94 1524.01 2225.43 1524.3 2225.91 1524.72 2226.32 1525.27 2226.64 1525.82 2226.97 1526.72 2227.29 1527.97 2227.62L1527.97 2229.6 1513.17 2229.6 1513.17 2227.62C1514.85 2227.18 1515.97 2226.71 1516.54 2226.18 1517.1 2225.65 1517.48 2224.9 1517.65 2223.93 1517.83 2222.96 1517.91 2221.47 1517.91 2219.47L1517.91 2184.41C1517.91 2182.55 1517.85 2181.19 1517.71 2180.34 1517.58 2179.49 1517.35 2178.83 1517.04 2178.36 1516.73 2177.88 1516.32 2177.5 1515.81 2177.22 1515.29 2176.94 1514.42 2176.62 1513.17 2176.27Z" fill-rule="evenodd"/><text fill="#000000" fill-opacity="0" font-family="Arial,Arial_MSFontService,sans-serif" font-size="55.563" x="1513.17" y="2222.9">N</text><path d="M2471.7 2177.08C2469.83 2177.08 2468.27 2177.63 2467.01 2178.74 2465.76 2179.85 2464.74 2181.44 2463.97 2183.52 2463.2 2185.6 2462.66 2188.14 2462.33 2191.12 2462.01 2194.11 2461.85 2197.48 2461.85 2201.23 2461.85 2210.04 2462.66 2216.51 2464.3 2220.63 2465.93 2224.75 2468.47 2226.81 2471.9 2226.81 2475.17 2226.81 2477.59 2224.87 2479.17 2220.99 2480.75 2217.11 2481.54 2211.11 2481.54 2202.98 2481.54 2196.76 2481.14 2191.73 2480.33 2187.88 2479.52 2184.03 2478.39 2181.27 2476.94 2179.59 2475.5 2177.92 2473.75 2177.08 2471.7 2177.08ZM2409.52 2174.28 2444.3 2174.28 2444.3 2176.23 2420.71 2229.89 2414.83 2229.89 2414.83 2227.9 2436.68 2181.66 2436.68 2181.05 2418.85 2181.05C2417.74 2181.05 2416.85 2181.15 2416.19 2181.35 2415.53 2181.56 2414.98 2181.85 2414.53 2182.23 2414.08 2182.6 2413.71 2183.1 2413.42 2183.73 2413.12 2184.35 2412.71 2185.58 2412.2 2187.41L2408.71 2187.41ZM2471.9 2173.63C2477.81 2173.63 2482.22 2175.92 2485.11 2180.48 2488 2185.05 2489.45 2191.95 2489.45 2201.19 2489.45 2210.76 2487.9 2217.99 2484.81 2222.9 2481.71 2227.8 2477.19 2230.25 2471.25 2230.25 2465.41 2230.25 2461.07 2227.95 2458.22 2223.36 2455.37 2218.77 2453.94 2211.8 2453.94 2202.45 2453.94 2197.48 2454.38 2193.18 2455.26 2189.56 2456.14 2185.94 2457.37 2182.95 2458.95 2180.58 2460.53 2178.22 2462.43 2176.47 2464.64 2175.34 2466.86 2174.2 2469.28 2173.63 2471.9 2173.63Z" fill-rule="evenodd"/><text fill="#000000" fill-opacity="0" font-family="Arial,Arial_MSFontService,sans-serif" font-size="56.6167" x="2408.71" y="2223.17">70</text><path d="M2507.85 2176.02C2506.16 2176.02 2504.79 2176.57 2503.74 2177.67 2502.68 2178.77 2502.16 2180.2 2502.16 2181.94 2502.16 2183.71 2502.69 2185.15 2503.75 2186.26 2504.81 2187.38 2506.18 2187.93 2507.85 2187.93 2508.94 2187.93 2509.92 2187.68 2510.79 2187.19 2511.67 2186.69 2512.35 2185.98 2512.83 2185.06 2513.32 2184.13 2513.56 2183.1 2513.56 2181.94 2513.56 2180.79 2513.32 2179.77 2512.83 2178.86 2512.35 2177.96 2511.67 2177.26 2510.81 2176.76 2509.95 2176.27 2508.96 2176.02 2507.85 2176.02ZM2508.02 2172.44C2509.83 2172.44 2511.45 2172.85 2512.88 2173.65 2514.31 2174.45 2515.42 2175.59 2516.2 2177.04 2516.98 2178.5 2517.38 2180.14 2517.38 2181.94 2517.38 2183.75 2516.96 2185.39 2516.14 2186.86 2515.32 2188.33 2514.16 2189.47 2512.69 2190.28 2511.21 2191.1 2509.54 2191.51 2507.7 2191.51 2505.83 2191.51 2504.18 2191.08 2502.75 2190.24 2501.32 2189.4 2500.23 2188.25 2499.48 2186.8 2498.72 2185.35 2498.34 2183.72 2498.34 2181.91 2498.34 2180.21 2498.75 2178.63 2499.55 2177.18 2500.35 2175.73 2501.5 2174.58 2502.99 2173.72 2504.48 2172.87 2506.16 2172.44 2508.02 2172.44Z" fill-rule="evenodd"/><text fill="#000000" fill-opacity="0" font-family="Arial,Arial_MSFontService,sans-serif" font-size="19.0625" x="2498.34" y="2189.12">âˆ˜</text><path d="M2529.47 2174.28 2542.15 2174.28 2562.17 2207.68C2563.14 2209.3 2563.96 2210.72 2564.62 2211.93 2565.29 2213.15 2565.97 2214.51 2566.67 2216.03L2567.2 2216.03C2567.06 2214.38 2566.94 2211.1 2566.83 2206.2 2566.72 2201.29 2566.67 2196.87 2566.67 2192.93L2566.67 2184.41C2566.67 2182.55 2566.62 2181.19 2566.51 2180.32 2566.4 2179.46 2566.2 2178.79 2565.92 2178.34 2565.64 2177.88 2565.24 2177.5 2564.75 2177.22 2564.25 2176.94 2563.37 2176.62 2562.13 2176.27L2562.13 2174.28 2576.72 2174.28 2576.72 2176.27C2575.51 2176.59 2574.65 2176.89 2574.15 2177.16 2573.65 2177.43 2573.24 2177.78 2572.93 2178.21 2572.62 2178.65 2572.38 2179.29 2572.22 2180.16 2572.06 2181.02 2571.98 2182.44 2571.98 2184.41L2571.98 2229.85 2566.91 2229.85 2544.34 2191.99C2542.93 2189.64 2541.94 2187.93 2541.34 2186.85 2540.75 2185.77 2540.19 2184.7 2539.68 2183.64L2538.99 2183.64C2539.18 2185.73 2539.31 2189.49 2539.4 2194.93 2539.48 2200.38 2539.52 2205.8 2539.52 2211.2L2539.52 2219.47C2539.52 2221.28 2539.58 2222.6 2539.7 2223.44 2539.82 2224.28 2540.02 2224.94 2540.31 2225.43 2540.59 2225.91 2541.01 2226.32 2541.56 2226.64 2542.12 2226.97 2543.02 2227.29 2544.26 2227.62L2544.26 2229.6 2529.47 2229.6 2529.47 2227.62C2531.14 2227.18 2532.26 2226.71 2532.83 2226.18 2533.4 2225.65 2533.77 2224.9 2533.94 2223.93 2534.12 2222.96 2534.21 2221.47 2534.21 2219.47L2534.21 2184.41C2534.21 2182.55 2534.14 2181.19 2534.01 2180.34 2533.87 2179.49 2533.65 2178.83 2533.34 2178.36 2533.03 2177.88 2532.61 2177.5 2532.1 2177.22 2531.59 2176.94 2530.71 2176.62 2529.47 2176.27Z" fill-rule="evenodd"/><text fill="#000000" fill-opacity="0" font-family="Arial,Arial_MSFontService,sans-serif" font-size="55.563" x="2529.47" y="2222.9">N</text><path d="M3258 852.5C3258 788.159 3311.5 736 3377.5 736 3443.5 736 3497 788.159 3497 852.5 3497 916.841 3443.5 969 3377.5 969 3311.5 969 3258 916.841 3258 852.5Z" stroke="#FF0000" stroke-width="10.3125" stroke-linecap="square" stroke-miterlimit="8" stroke-dasharray="30.9375 10.3125" fill="none" fill-rule="evenodd"/><path d="M3268.39 1019.23C3267.39 1019.23 3266.41 1019.54 3265.44 1020.18 3264.47 1020.81 3263.39 1021.87 3262.2 1023.34 3261.02 1024.8 3260.05 1026.31 3259.3 1027.85 3258.55 1029.39 3257.91 1031.36 3257.39 1033.76L3257.11 1035.07C3256.8 1036.53 3256.64 1037.94 3256.64 1039.32 3256.64 1040.97 3257 1042.15 3257.72 1042.88 3258.44 1043.61 3259.63 1043.98 3261.3 1043.98 3262.15 1043.98 3262.96 1043.84 3263.73 1043.55 3264.51 1043.27 3265.29 1042.81 3266.09 1042.16 3266.9 1041.52 3267.66 1040.67 3268.38 1039.62 3269.09 1038.56 3269.76 1037.27 3270.36 1035.73 3270.96 1034.18 3271.43 1032.53 3271.77 1030.77 3272.1 1029.01 3272.27 1027.33 3272.27 1025.73 3272.27 1023.56 3271.96 1021.93 3271.34 1020.85 3270.73 1019.77 3269.74 1019.23 3268.39 1019.23ZM3262.92 1001.26 3264.73 1001.26 3259.23 1023.13 3259.64 1023.26C3261.66 1020.55 3263.56 1018.59 3265.33 1017.38 3267.1 1016.17 3268.87 1015.57 3270.64 1015.57 3272.91 1015.57 3274.68 1016.43 3275.94 1018.16 3277.2 1019.89 3277.83 1022.33 3277.83 1025.48 3277.83 1028.91 3277.14 1032.29 3275.75 1035.62 3274.36 1038.94 3272.44 1041.57 3269.98 1043.52 3267.53 1045.47 3264.78 1046.44 3261.73 1046.44 3258.96 1046.44 3256.51 1045.77 3254.36 1044.41L3251.48 1046.44 3249.48 1045.94 3257.58 1010.23C3258.06 1008.1 3258.3 1006.56 3258.3 1005.6 3258.3 1004.73 3258.03 1004.11 3257.5 1003.76 3256.97 1003.4 3256.02 1003.21 3254.64 1003.16L3255.02 1001.54Z" fill="#FF0000" fill-rule="evenodd"/><text fill="#000000" fill-opacity="0" font-family="Arial,Arial_MSFontService,sans-serif" font-size="45.1875" x="3249.48" y="1040.8">ğ‘</text><path d="M3295.28 1037.87C3294.44 1037.87 3293.61 1038.08 3292.79 1038.49 3291.98 1038.9 3291.2 1039.49 3290.48 1040.25 3289.75 1041 3289.09 1041.92 3288.49 1043 3287.9 1044.08 3287.4 1045.28 3287 1046.61 3288.94 1046.6 3290.61 1046.45 3292.01 1046.16 3293.41 1045.86 3294.56 1045.47 3295.46 1044.96 3296.35 1044.46 3297.01 1043.86 3297.43 1043.17 3297.85 1042.48 3298.06 1041.73 3298.06 1040.9 3298.06 1039.95 3297.82 1039.21 3297.35 1038.67 3296.88 1038.14 3296.19 1037.87 3295.28 1037.87ZM3296.27 1035.6C3298.23 1035.6 3299.72 1036.03 3300.74 1036.88 3301.75 1037.74 3302.26 1038.96 3302.26 1040.53 3302.26 1046.07 3297.02 1048.84 3286.54 1048.84 3286.46 1049.24 3286.4 1049.67 3286.36 1050.14 3286.31 1050.6 3286.29 1051.11 3286.29 1051.66 3286.29 1053.33 3286.63 1054.55 3287.31 1055.31 3287.99 1056.08 3289.05 1056.46 3290.49 1056.46 3291.24 1056.46 3291.95 1056.38 3292.62 1056.22 3293.3 1056.06 3293.96 1055.81 3294.61 1055.47 3295.26 1055.14 3295.91 1054.7 3296.57 1054.18 3297.23 1053.65 3297.92 1053.02 3298.64 1052.28L3300.36 1054.14C3298.58 1055.9 3296.81 1057.22 3295.04 1058.11 3293.28 1059 3291.38 1059.44 3289.34 1059.44 3288.15 1059.44 3287.09 1059.26 3286.16 1058.9 3285.24 1058.54 3284.46 1058.02 3283.82 1057.33 3283.19 1056.64 3282.7 1055.81 3282.38 1054.82 3282.05 1053.83 3281.88 1052.72 3281.88 1051.48 3281.88 1050.61 3281.96 1049.7 3282.11 1048.76 3282.26 1047.82 3282.5 1046.88 3282.82 1045.94 3283.14 1045 3283.54 1044.08 3284.02 1043.18 3284.49 1042.29 3285.05 1041.45 3285.69 1040.67 3286.98 1039.08 3288.53 1037.84 3290.34 1036.94 3292.15 1036.05 3294.13 1035.6 3296.27 1035.6Z" fill="#FF0000" fill-rule="evenodd"/><text fill="#000000" fill-opacity="0" font-family="Arial,Arial_MSFontService,sans-serif" font-size="23.8442" x="3281.88" y="1056.46">ğ‘’</text><path d="M3292.87 1000.36 3295.9 1000.36 3295.23 1007.54 3301.13 1003.38 3302.62 1005.95 3296.08 1009.01 3302.62 1012.08 3301.13 1014.63 3295.23 1010.48 3295.9 1017.66 3292.87 1017.66 3293.56 1010.48 3287.64 1014.63 3286.12 1012.08 3292.69 1009.01 3286.12 1005.95 3287.64 1003.38 3293.56 1007.54Z" fill="#FF0000" fill-rule="evenodd"/><text fill="#000000" fill-opacity="0" font-family="Arial,Arial_MSFontService,sans-serif" font-size="17.3037" x="3286.12" y="1015.5">âˆ—</text><path d="M3327.14 1025.57 3365.64 1025.57 3365.64 1029.73 3327.14 1029.73Z" fill="#FF0000" fill-rule="evenodd"/><text fill="#000000" fill-opacity="0" font-family="Arial,Arial_MSFontService,sans-serif" font-size="4.15625" x="3327.14" y="1029.21">âˆ’</text><path d="M3406.65 1019.23C3405.65 1019.23 3404.66 1019.54 3403.69 1020.18 3402.73 1020.81 3401.65 1021.87 3400.46 1023.34 3399.27 1024.8 3398.3 1026.31 3397.55 1027.85 3396.8 1029.39 3396.17 1031.36 3395.65 1033.76L3395.37 1035.07C3395.05 1036.53 3394.9 1037.94 3394.9 1039.32 3394.9 1040.97 3395.26 1042.15 3395.98 1042.88 3396.69 1043.61 3397.89 1043.98 3399.55 1043.98 3400.41 1043.98 3401.22 1043.84 3401.99 1043.55 3402.76 1043.27 3403.55 1042.81 3404.35 1042.16 3405.15 1041.52 3405.91 1040.67 3406.63 1039.62 3407.35 1038.56 3408.01 1037.27 3408.62 1035.73 3409.22 1034.18 3409.69 1032.53 3410.02 1030.77 3410.36 1029.01 3410.52 1027.33 3410.52 1025.73 3410.52 1023.56 3410.21 1021.93 3409.6 1020.85 3408.99 1019.77 3408 1019.23 3406.65 1019.23ZM3401.18 1001.26 3402.99 1001.26 3397.49 1023.13 3397.9 1023.26C3399.92 1020.55 3401.81 1018.59 3403.58 1017.38 3405.36 1016.17 3407.13 1015.57 3408.9 1015.57 3411.17 1015.57 3412.93 1016.43 3414.19 1018.16 3415.45 1019.89 3416.08 1022.33 3416.08 1025.48 3416.08 1028.91 3415.39 1032.29 3414.01 1035.62 3412.62 1038.94 3410.7 1041.57 3408.24 1043.52 3405.78 1045.47 3403.03 1046.44 3399.99 1046.44 3397.22 1046.44 3394.76 1045.77 3392.62 1044.41L3389.74 1046.44 3387.74 1045.94 3395.83 1010.23C3396.31 1008.1 3396.55 1006.56 3396.55 1005.6 3396.55 1004.73 3396.29 1004.11 3395.76 1003.76 3395.23 1003.4 3394.27 1003.21 3392.9 1003.16L3393.27 1001.54Z" fill="#FF0000" fill-rule="evenodd"/><text fill="#000000" fill-opacity="0" font-family="Arial,Arial_MSFontService,sans-serif" font-size="45.1875" x="3387.74" y="1040.8">ğ‘</text><path d="M3418.92 1036.08 3425.55 1036.08 3427.34 1054.72C3428.32 1053.2 3429.19 1051.83 3429.94 1050.61 3430.69 1049.38 3431.35 1048.26 3431.91 1047.23 3432.48 1046.21 3432.97 1045.26 3433.38 1044.39 3433.79 1043.52 3434.14 1042.68 3434.42 1041.89 3434.71 1041.09 3434.94 1040.31 3435.14 1039.55 3435.33 1038.78 3435.49 1037.99 3435.63 1037.18L3435.9 1036.08 3439.58 1036.08 3441.57 1054.72C3444.1 1051.27 3446.01 1048.26 3447.3 1045.69 3448.59 1043.11 3449.24 1041.05 3449.24 1039.5 3449.24 1038.83 3449.08 1038.35 3448.76 1038.08 3448.44 1037.8 3447.85 1037.63 3447.01 1037.55L3447.29 1036.08 3453.76 1036.08 3454.56 1037.41C3453.92 1039.08 3453.21 1040.72 3452.44 1042.35 3451.67 1043.97 3450.76 1045.65 3449.72 1047.41 3448.68 1049.16 3447.46 1051.01 3446.07 1052.97 3444.68 1054.93 3443.04 1057.07 3441.16 1059.4L3438.22 1059.4 3436.36 1043.47C3435.35 1045.8 3434.08 1048.27 3432.54 1050.91 3431.01 1053.54 3429.2 1056.37 3427.12 1059.4L3423.76 1059.4 3421.61 1042.07C3421.49 1041.15 3421.38 1040.41 3421.29 1039.86 3421.19 1039.3 3421.05 1038.86 3420.86 1038.55 3420.67 1038.23 3420.4 1038.01 3420.05 1037.87 3419.7 1037.73 3419.21 1037.63 3418.58 1037.55Z" fill="#FF0000" fill-rule="evenodd"/><text fill="#000000" fill-opacity="0" font-family="Arial,Arial_MSFontService,sans-serif" font-size="23.3164" x="3418.58" y="1056.48">ğ‘¤</text><path d="M3431.13 1000.36 3434.15 1000.36 3433.49 1007.54 3439.39 1003.38 3440.88 1005.95 3434.34 1009.01 3440.88 1012.08 3439.39 1014.63 3433.49 1010.48 3434.15 1017.66 3431.13 1017.66 3431.81 1010.48 3425.89 1014.63 3424.38 1012.08 3430.94 1009.01 3424.38 1005.95 3425.89 1003.38 3431.81 1007.54Z" fill="#FF0000" fill-rule="evenodd"/><text fill="#000000" fill-opacity="0" font-family="Arial,Arial_MSFontService,sans-serif" font-size="17.3037" x="3424.38" y="1015.5">âˆ—</text><path d="M3481.92 1008.26 3520.55 1025.48 3520.55 1029.85 3481.92 1047.07 3481.92 1042.38 3515.86 1027.66 3481.92 1012.94Z" fill="#FF0000" fill-rule="evenodd"/><text fill="#000000" fill-opacity="0" font-family="Arial,Arial_MSFontService,sans-serif" font-size="38.8125" x="3481.92" y="1042.22">&gt;</text><path d="M3560.94 1005.44C3559.5 1005.44 3558.3 1005.87 3557.33 1006.73 3556.36 1007.58 3555.58 1008.81 3554.99 1010.41 3554.39 1012.02 3553.97 1013.97 3553.72 1016.27 3553.47 1018.57 3553.34 1021.17 3553.34 1024.07 3553.34 1030.86 3553.97 1035.85 3555.24 1039.02 3556.5 1042.2 3558.45 1043.79 3561.09 1043.79 3563.62 1043.79 3565.49 1042.29 3566.7 1039.3 3567.92 1036.31 3568.53 1031.68 3568.53 1025.41 3568.53 1020.62 3568.22 1016.74 3567.59 1013.77 3566.97 1010.8 3566.1 1008.67 3564.99 1007.38 3563.87 1006.09 3562.52 1005.44 3560.94 1005.44ZM3561.09 1002.79C3565.66 1002.79 3569.05 1004.55 3571.28 1008.07 3573.51 1011.59 3574.63 1016.91 3574.63 1024.04 3574.63 1031.41 3573.43 1036.99 3571.05 1040.77 3568.66 1044.55 3565.18 1046.44 3560.59 1046.44 3556.09 1046.44 3552.75 1044.67 3550.55 1041.13 3548.35 1037.59 3547.25 1032.22 3547.25 1025.01 3547.25 1021.17 3547.59 1017.86 3548.27 1015.07 3548.94 1012.28 3549.89 1009.97 3551.11 1008.15 3552.33 1006.32 3553.79 1004.98 3555.5 1004.1 3557.21 1003.23 3559.07 1002.79 3561.09 1002.79Z" fill="#FF0000" fill-rule="evenodd"/><text fill="#000000" fill-opacity="0" font-family="Arial,Arial_MSFontService,sans-serif" font-size="43.6562" x="3547.25" y="1040.99">0</text><path d="M3261 1796C3261 1731.38 3314.5 1679 3380.5 1679 3446.5 1679 3500 1731.38 3500 1796 3500 1860.62 3446.5 1913 3380.5 1913 3314.5 1913 3261 1860.62 3261 1796Z" stroke="#FF0000" stroke-width="10.3125" stroke-linecap="square" stroke-miterlimit="8" stroke-dasharray="30.9375 10.3125" fill="none" fill-rule="evenodd"/><path d="M1928 1757 1949 1757 1949 1660 1991 1660 1991 1757 2012 1757 1970 1799Z" fill-rule="evenodd"/><path d="M1937 1515C1937 1496.22 1952.22 1481 1971 1481 1989.78 1481 2005 1496.22 2005 1515 2005 1533.78 1989.78 1549 1971 1549 1952.22 1549 1937 1533.78 1937 1515Z" stroke="#000000" stroke-width="10.3125" stroke-miterlimit="8" fill="#FFFFFF" fill-rule="evenodd"/><path d="M1959 1515C1959 1508.37 1964.37 1503 1971 1503 1977.63 1503 1983 1508.37 1983 1515 1983 1521.63 1977.63 1527 1971 1527 1964.37 1527 1959 1521.63 1959 1515Z" stroke="#000000" stroke-width="10.3125" stroke-miterlimit="8" fill-rule="evenodd"/><path d="M1934 1936.5C1934 1914.68 1951.46 1897 1973 1897 1994.54 1897 2012 1914.68 2012 1936.5 2012 1958.32 1994.54 1976 1973 1976 1951.46 1976 1934 1958.32 1934 1936.5Z" stroke="#000000" stroke-width="10.3125" stroke-miterlimit="8" fill="#FFFFFF" fill-rule="evenodd"/><path d="M1946.92 1914.92 1949.23 1912.68 1972.5 1936.69 1995.77 1912.68 1998.08 1914.92 1974.74 1939 1998.08 1963.08 1995.77 1965.32 1972.5 1941.31 1949.23 1965.32 1946.92 1963.08 1970.26 1939Z" stroke="#000000" stroke-width="4.58333" stroke-miterlimit="8" fill-rule="evenodd"/><text font-family="Abadi,Abadi_MSFontService,sans-serif" font-weight="400" font-size="83" transform="matrix(1 0 0 1 1705.43 357)">(a) Begin state</text><text font-family="Abadi,Abadi_MSFontService,sans-serif" font-weight="400" font-size="83" transform="matrix(1 0 0 1 3138.36 357)">(b) Steady state</text><path d="M3177.34 1099.71 3163.9 1099.73 3163.94 1099.73 3151.06 1099.8 3138.67 1099.79 3126.73 1099.55 3115.21 1098.96 3104.09 1097.85 3093.36 1096.07 3083.01 1093.44 3073.07 1089.78 3063.61 1084.93 3054.72 1078.74 3046.62 1071.26 3042.66 1066.78 3039.01 1062.07 3035.54 1056.98 3032.26 1051.51 3029.16 1045.65 3026.23 1039.38 3023.47 1032.7 3020.91 1025.67 3018.34 1018.16 3015.51 1009.84 3012.46 1000.7 3009.21 990.808 3005.82 980.212 3002.33 968.973 2998.77 957.148 2995.19 944.797 2991.63 931.975 2988.13 918.701 2981.52 891.248 2975.67 862.789 2970.95 833.87 2969.11 819.258 2967.68 804.735 2966.7 790.298 2966.23 775.999 2966.3 761.89 2966.96 748.025 2968.27 734.453 2970.27 721.228 2973.03 708.403 2976.6 696.033 2981.04 684.18 2986.42 672.911 2992.79 662.304 3000.22 652.449 3008.74 643.442 3018.24 635.5 3023.6 631.734 3029.2 628.174 3035.15 624.716 3041.53 621.316 3055.08 614.887 3069.99 608.746 3086.11 602.918 3103.33 597.394 3121.58 592.174 3140.76 587.257 3160.78 582.647 3181.53 578.347 3202.92 574.363 3224.85 570.701 3247.22 567.366 3269.98 564.359 3315.99 559.39 3362.18 555.836 3385.15 554.605 3407.82 553.753 3430.13 553.283 3451.98 553.205 3473.28 553.526 3493.93 554.254 3513.83 555.398 3532.88 556.968 3550.99 558.974 3568.07 561.43 3584.03 564.351 3598.8 567.758 3612.2 571.656 3618.53 573.854 3624.5 576.199 3635.35 581.215 3645.54 586.894 3655.01 593.186 3663.77 600.068 3671.83 607.51 3679.2 615.482 3685.89 623.952 3691.93 632.885 3697.35 642.25 3702.16 652.019 3706.39 662.163 3710.09 672.658 3713.27 683.483 3715.97 694.617 3718.22 706.043 3720.05 717.742 3721.48 729.698 3722.55 741.962 3723.69 766.932 3723.68 792.752 3722.71 819.207 3720.99 846.188 3718.25 877.191 3697.71 875.377 3700.43 844.498 3700.41 844.748 3702.12 818.033 3702.1 818.314 3703.06 792.185 3703.05 792.555 3703.06 767.158 3703.08 767.632 3701.96 743.113 3701.99 743.543 3700.95 731.659 3700.98 731.989 3699.59 720.379 3699.64 720.743 3697.88 709.427 3697.95 709.828 3695.78 698.823 3695.88 699.262 3693.29 688.586 3693.41 689.064 3690.38 678.736 3690.54 679.251 3687.04 669.289 3687.25 669.84 3683.25 660.263 3683.51 660.843 3678.99 651.669 3679.32 652.273 3674.26 643.519 3674.64 644.136 3669.02 635.822 3669.47 636.44 3663.27 628.584 3663.78 629.188 3656.96 621.808 3657.54 622.384 3650.08 615.498 3650.71 616.032 3642.6 609.659 3643.26 610.139 3634.47 604.296 3635.15 604.715 3625.65 599.421 3626.35 599.775 3616.12 595.049 3616.67 595.285 3611.18 593.126 3611.56 593.269 3605.68 591.225 3606.18 591.386 3593.32 587.643 3593.88 587.79 3579.62 584.501 3580.09 584.596 3564.55 581.754 3564.94 581.817 3548.22 579.413 3548.55 579.456 3530.75 577.484 3531.04 577.511 3512.26 575.964 3512.51 575.982 3492.86 574.851 3493.09 574.862 3472.66 574.142 3472.87 574.147 3451.77 573.829 3451.96 573.83 3430.29 573.908 3430.47 573.905 3408.34 574.371 3408.51 574.366 3386 575.213 3386.17 575.205 3363.4 576.425 3363.64 576.41 3317.73 579.942 3318.05 579.913 3272.31 584.852 3272.56 584.823 3250.01 587.802 3250.18 587.778 3227.98 591.087 3228.16 591.059 3206.41 594.691 3206.6 594.657 3185.41 598.604 3185.61 598.564 3165.07 602.82 3165.3 602.771 3145.52 607.327 3145.76 607.267 3126.84 612.117 3127.12 612.043 3109.16 617.179 3109.48 617.085 3092.58 622.5 3092.94 622.378 3077.22 628.065 3077.64 627.903 3063.18 633.855 3063.68 633.636 3050.59 639.845 3051.02 639.628 3045.03 642.826 3045.35 642.646 3039.73 645.906 3040.09 645.69 3034.87 649.011 3035.26 648.749 3030.44 652.13 3031.13 651.602 3022.43 658.878 3023.31 658.053 3015.6 666.202 3016.34 665.321 3009.59 674.284 3010.19 673.391 3004.35 683.111 3004.82 682.24 2999.85 692.659 3000.2 691.836 2996.05 702.896 2996.31 702.136 2992.95 713.778 2993.12 713.088 2990.5 725.255 2990.62 724.633 2988.7 737.268 2988.77 736.712 2987.51 749.756 2987.55 749.26 2986.91 762.656 2986.92 762.214 2986.85 775.903 2986.85 775.509 2987.31 789.435 2987.29 789.083 2988.25 803.187 2988.22 802.872 2989.62 817.095 2989.59 816.813 2991.39 831.099 2991.34 830.731 2996 859.259 2995.92 858.845 3001.69 886.928 3001.61 886.589 3008.16 913.765 3008.1 913.548 3011.56 926.651 3011.52 926.525 3015.05 939.227 3015.01 939.113 3018.56 951.357 3018.53 951.255 3022.06 962.982 3022.03 962.891 3025.5 974.044 3025.48 973.964 3028.85 984.485 3028.82 984.416 3032.05 994.248 3032.03 994.191 3035.07 1003.28 3035.05 1003.23 3037.85 1011.49 3040.39 1018.9 3040.32 1018.71 3042.77 1025.43 3042.62 1025.03 3045.2 1031.3 3045.01 1030.87 3047.73 1036.69 3047.5 1036.23 3050.36 1041.62 3050.09 1041.14 3053.07 1046.11 3052.75 1045.61 3055.87 1050.19 3055.5 1049.68 3058.76 1053.88 3058.33 1053.37 3061.72 1057.21 3061 1056.46 3068.19 1063.11 3067.08 1062.22 3074.82 1067.6 3073.64 1066.89 3081.93 1071.15 3080.79 1070.65 3089.63 1073.9 3088.61 1073.59 3098.02 1075.98 3097.16 1075.8 3107.13 1077.45 3106.47 1077.36 3117 1078.41 3116.51 1078.37 3127.62 1078.95 3127.29 1078.94 3138.98 1079.16 3138.79 1079.16 3151.05 1079.18 3150.99 1079.18 3163.85 1079.11 3177.3 1079.09ZM3739.77 869.034 3702.96 927.602 3678.19 863.008Z" fill="#4472C4"/><path d="M2844.15 2177.08C2842.29 2177.08 2840.73 2177.63 2839.47 2178.74 2838.21 2179.85 2837.2 2181.44 2836.43 2183.52 2835.66 2185.6 2835.11 2188.14 2834.79 2191.12 2834.47 2194.11 2834.3 2197.48 2834.3 2201.23 2834.3 2210.04 2835.12 2216.51 2836.76 2220.63 2838.39 2224.75 2840.92 2226.81 2844.35 2226.81 2847.62 2226.81 2850.05 2224.87 2851.63 2220.99 2853.21 2217.11 2854 2211.11 2854 2202.98 2854 2196.76 2853.59 2191.73 2852.78 2187.88 2851.97 2184.03 2850.85 2181.27 2849.4 2179.59 2847.95 2177.92 2846.21 2177.08 2844.15 2177.08ZM2844.35 2173.63C2850.27 2173.63 2854.68 2175.92 2857.57 2180.48 2860.46 2185.05 2861.9 2191.95 2861.9 2201.19 2861.9 2210.76 2860.36 2217.99 2857.26 2222.9 2854.17 2227.8 2849.65 2230.25 2843.71 2230.25 2837.87 2230.25 2833.53 2227.95 2830.68 2223.36 2827.83 2218.77 2826.4 2211.8 2826.4 2202.45 2826.4 2197.48 2826.84 2193.18 2827.72 2189.56 2828.6 2185.94 2829.83 2182.95 2831.41 2180.58 2832.99 2178.22 2834.88 2176.47 2837.1 2175.34 2839.32 2174.2 2841.73 2173.63 2844.35 2173.63ZM2801.35 2173.63 2803.58 2173.63C2803.42 2176.23 2803.34 2179.82 2803.34 2184.41L2803.34 2219.03C2803.34 2220.59 2803.43 2221.77 2803.6 2222.57 2803.78 2223.37 2804.09 2224.02 2804.54 2224.52 2804.98 2225.02 2805.62 2225.41 2806.46 2225.69 2807.3 2225.98 2808.35 2226.19 2809.62 2226.34 2810.89 2226.49 2812.57 2226.59 2814.65 2226.64L2814.65 2229.6 2784.7 2229.6 2784.7 2226.64C2787.7 2226.51 2789.84 2226.33 2791.12 2226.1 2792.4 2225.87 2793.38 2225.52 2794.06 2225.06 2794.73 2224.6 2795.23 2223.96 2795.54 2223.12 2795.85 2222.28 2796 2220.92 2796 2219.03L2796 2186.16C2796 2185.08 2795.81 2184.29 2795.44 2183.79 2795.06 2183.29 2794.5 2183.04 2793.78 2183.04 2792.91 2183.04 2791.68 2183.48 2790.09 2184.37 2788.49 2185.27 2786.52 2186.5 2784.17 2188.06L2782.39 2184.94Z" fill-rule="evenodd"/><text fill="#000000" fill-opacity="0" font-family="Arial,Arial_MSFontService,sans-serif" font-size="56.6167" x="2782.39" y="2223.17">10</text><path d="M2880.3 2176.02C2878.61 2176.02 2877.24 2176.57 2876.19 2177.67 2875.14 2178.77 2874.61 2180.2 2874.61 2181.94 2874.61 2183.71 2875.15 2185.15 2876.21 2186.26 2877.27 2187.38 2878.63 2187.93 2880.3 2187.93 2881.39 2187.93 2882.38 2187.68 2883.25 2187.19 2884.13 2186.69 2884.81 2185.98 2885.29 2185.06 2885.78 2184.13 2886.02 2183.1 2886.02 2181.94 2886.02 2180.79 2885.78 2179.77 2885.29 2178.86 2884.81 2177.96 2884.13 2177.26 2883.27 2176.76 2882.4 2176.27 2881.41 2176.02 2880.3 2176.02ZM2880.48 2172.44C2882.29 2172.44 2883.91 2172.85 2885.34 2173.65 2886.77 2174.45 2887.87 2175.59 2888.66 2177.04 2889.44 2178.5 2889.83 2180.14 2889.83 2181.94 2889.83 2183.75 2889.42 2185.39 2888.6 2186.86 2887.77 2188.33 2886.62 2189.47 2885.14 2190.28 2883.66 2191.1 2882 2191.51 2880.15 2191.51 2878.29 2191.51 2876.64 2191.08 2875.21 2190.24 2873.78 2189.4 2872.69 2188.25 2871.93 2186.8 2871.18 2185.35 2870.8 2183.72 2870.8 2181.91 2870.8 2180.21 2871.2 2178.63 2872.01 2177.18 2872.81 2175.73 2873.96 2174.58 2875.45 2173.72 2876.94 2172.87 2878.61 2172.44 2880.48 2172.44Z" fill-rule="evenodd"/><text fill="#000000" fill-opacity="0" font-family="Arial,Arial_MSFontService,sans-serif" font-size="19.0625" x="2870.8" y="2189.12">âˆ˜</text><path d="M2901.92 2174.28 2914.61 2174.28 2934.63 2207.68C2935.6 2209.3 2936.42 2210.72 2937.08 2211.93 2937.74 2213.15 2938.42 2214.51 2939.13 2216.03L2939.65 2216.03C2939.52 2214.38 2939.4 2211.1 2939.29 2206.2 2939.18 2201.29 2939.13 2196.87 2939.13 2192.93L2939.13 2184.41C2939.13 2182.55 2939.07 2181.19 2938.97 2180.32 2938.86 2179.46 2938.66 2178.79 2938.38 2178.34 2938.09 2177.88 2937.7 2177.5 2937.2 2177.22 2936.7 2176.94 2935.83 2176.62 2934.59 2176.27L2934.59 2174.28 2949.18 2174.28 2949.18 2176.27C2947.96 2176.59 2947.1 2176.89 2946.6 2177.16 2946.1 2177.43 2945.7 2177.78 2945.39 2178.21 2945.08 2178.65 2944.84 2179.29 2944.68 2180.16 2944.52 2181.02 2944.44 2182.44 2944.44 2184.41L2944.44 2229.85 2939.37 2229.85 2916.8 2191.99C2915.39 2189.64 2914.39 2187.93 2913.8 2186.85 2913.2 2185.77 2912.65 2184.7 2912.14 2183.64L2911.45 2183.64C2911.64 2185.73 2911.77 2189.49 2911.85 2194.93 2911.93 2200.38 2911.97 2205.8 2911.97 2211.2L2911.97 2219.47C2911.97 2221.28 2912.03 2222.6 2912.16 2223.44 2912.28 2224.28 2912.48 2224.94 2912.76 2225.43 2913.05 2225.91 2913.47 2226.32 2914.02 2226.64 2914.57 2226.97 2915.47 2227.29 2916.72 2227.62L2916.72 2229.6 2901.92 2229.6 2901.92 2227.62C2903.6 2227.18 2904.72 2226.71 2905.29 2226.18 2905.85 2225.65 2906.23 2224.9 2906.4 2223.93 2906.58 2222.96 2906.66 2221.47 2906.66 2219.47L2906.66 2184.41C2906.66 2182.55 2906.6 2181.19 2906.46 2180.34 2906.33 2179.49 2906.1 2178.83 2905.79 2178.36 2905.48 2177.88 2905.07 2177.5 2904.56 2177.22 2904.04 2176.94 2903.17 2176.62 2901.92 2176.27Z" fill-rule="evenodd"/><text fill="#000000" fill-opacity="0" font-family="Arial,Arial_MSFontService,sans-serif" font-size="55.563" x="2901.92" y="2222.9">N</text><path d="M3860.44 2177.08C3858.58 2177.08 3857.02 2177.63 3855.76 2178.74 3854.51 2179.85 3853.49 2181.44 3852.72 2183.52 3851.95 2185.6 3851.41 2188.14 3851.08 2191.12 3850.76 2194.11 3850.6 2197.48 3850.6 2201.23 3850.6 2210.04 3851.41 2216.51 3853.05 2220.63 3854.68 2224.75 3857.22 2226.81 3860.65 2226.81 3863.92 2226.81 3866.34 2224.87 3867.92 2220.99 3869.5 2217.11 3870.29 2211.11 3870.29 2202.98 3870.29 2196.76 3869.89 2191.73 3869.08 2187.88 3868.27 2184.03 3867.14 2181.27 3865.69 2179.59 3864.25 2177.92 3862.5 2177.08 3860.44 2177.08ZM3798.27 2174.28 3833.05 2174.28 3833.05 2176.23 3809.46 2229.89 3803.58 2229.89 3803.58 2227.9 3825.43 2181.66 3825.43 2181.05 3807.6 2181.05C3806.49 2181.05 3805.6 2181.15 3804.94 2181.35 3804.28 2181.56 3803.73 2181.85 3803.28 2182.23 3802.83 2182.6 3802.46 2183.1 3802.17 2183.73 3801.87 2184.35 3801.46 2185.58 3800.95 2187.41L3797.46 2187.41ZM3860.65 2173.63C3866.56 2173.63 3870.97 2175.92 3873.86 2180.48 3876.75 2185.05 3878.2 2191.95 3878.2 2201.19 3878.2 2210.76 3876.65 2217.99 3873.56 2222.9 3870.46 2227.8 3865.94 2230.25 3860 2230.25 3854.16 2230.25 3849.82 2227.95 3846.97 2223.36 3844.12 2218.77 3842.69 2211.8 3842.69 2202.45 3842.69 2197.48 3843.13 2193.18 3844.01 2189.56 3844.89 2185.94 3846.12 2182.95 3847.7 2180.58 3849.28 2178.22 3851.18 2176.47 3853.39 2175.34 3855.61 2174.2 3858.03 2173.63 3860.65 2173.63Z" fill-rule="evenodd"/><text fill="#000000" fill-opacity="0" font-family="Arial,Arial_MSFontService,sans-serif" font-size="56.6167" x="3797.46" y="2223.17">70</text><path d="M3896.6 2176.02C3894.91 2176.02 3893.54 2176.57 3892.49 2177.67 3891.43 2178.77 3890.91 2180.2 3890.91 2181.94 3890.91 2183.71 3891.44 2185.15 3892.5 2186.26 3893.56 2187.38 3894.93 2187.93 3896.6 2187.93 3897.69 2187.93 3898.67 2187.68 3899.54 2187.19 3900.42 2186.69 3901.1 2185.98 3901.58 2185.06 3902.07 2184.13 3902.31 2183.1 3902.31 2181.94 3902.31 2180.79 3902.07 2179.77 3901.58 2178.86 3901.1 2177.96 3900.42 2177.26 3899.56 2176.76 3898.7 2176.27 3897.71 2176.02 3896.6 2176.02ZM3896.77 2172.44C3898.58 2172.44 3900.2 2172.85 3901.63 2173.65 3903.06 2174.45 3904.17 2175.59 3904.95 2177.04 3905.73 2178.5 3906.13 2180.14 3906.13 2181.94 3906.13 2183.75 3905.71 2185.39 3904.89 2186.86 3904.07 2188.33 3902.91 2189.47 3901.44 2190.28 3899.96 2191.1 3898.29 2191.51 3896.45 2191.51 3894.58 2191.51 3892.93 2191.08 3891.5 2190.24 3890.07 2189.4 3888.98 2188.25 3888.23 2186.8 3887.47 2185.35 3887.09 2183.72 3887.09 2181.91 3887.09 2180.21 3887.5 2178.63 3888.3 2177.18 3889.1 2175.73 3890.25 2174.58 3891.74 2173.72 3893.23 2172.87 3894.91 2172.44 3896.77 2172.44Z" fill-rule="evenodd"/><text fill="#000000" fill-opacity="0" font-family="Arial,Arial_MSFontService,sans-serif" font-size="19.0625" x="3887.09" y="2189.12">âˆ˜</text><path d="M3918.22 2174.28 3930.9 2174.28 3950.92 2207.68C3951.89 2209.3 3952.71 2210.72 3953.37 2211.93 3954.04 2213.15 3954.72 2214.51 3955.42 2216.03L3955.95 2216.03C3955.81 2214.38 3955.69 2211.1 3955.58 2206.2 3955.47 2201.29 3955.42 2196.87 3955.42 2192.93L3955.42 2184.41C3955.42 2182.55 3955.37 2181.19 3955.26 2180.32 3955.15 2179.46 3954.95 2178.79 3954.67 2178.34 3954.39 2177.88 3953.99 2177.5 3953.5 2177.22 3953 2176.94 3952.12 2176.62 3950.88 2176.27L3950.88 2174.28 3965.47 2174.28 3965.47 2176.27C3964.26 2176.59 3963.4 2176.89 3962.9 2177.16 3962.4 2177.43 3961.99 2177.78 3961.68 2178.21 3961.37 2178.65 3961.13 2179.29 3960.97 2180.16 3960.81 2181.02 3960.73 2182.44 3960.73 2184.41L3960.73 2229.85 3955.66 2229.85 3933.09 2191.99C3931.68 2189.64 3930.69 2187.93 3930.09 2186.85 3929.5 2185.77 3928.94 2184.7 3928.43 2183.64L3927.74 2183.64C3927.93 2185.73 3928.06 2189.49 3928.15 2194.93 3928.23 2200.38 3928.27 2205.8 3928.27 2211.2L3928.27 2219.47C3928.27 2221.28 3928.33 2222.6 3928.45 2223.44 3928.57 2224.28 3928.77 2224.94 3929.06 2225.43 3929.34 2225.91 3929.76 2226.32 3930.31 2226.64 3930.87 2226.97 3931.77 2227.29 3933.01 2227.62L3933.01 2229.6 3918.22 2229.6 3918.22 2227.62C3919.89 2227.18 3921.01 2226.71 3921.58 2226.18 3922.15 2225.65 3922.52 2224.9 3922.69 2223.93 3922.87 2222.96 3922.96 2221.47 3922.96 2219.47L3922.96 2184.41C3922.96 2182.55 3922.89 2181.19 3922.76 2180.34 3922.62 2179.49 3922.4 2178.83 3922.09 2178.36 3921.78 2177.88 3921.36 2177.5 3920.85 2177.22 3920.34 2176.94 3919.46 2176.62 3918.22 2176.27Z" fill-rule="evenodd"/><text fill="#000000" fill-opacity="0" font-family="Arial,Arial_MSFontService,sans-serif" font-size="55.563" x="3918.22" y="2222.9">N</text><path d="M1730 1495C1730 1451.92 1764.92 1417 1808 1417L2120 1417C2163.08 1417 2198 1451.92 2198 1495L2198 1933C2198 1976.08 2163.08 2011 2120 2011L1808 2011C1764.92 2011 1730 1976.08 1730 1933Z" stroke="#FF0000" stroke-width="10.3125" stroke-linecap="square" stroke-miterlimit="8" stroke-dasharray="30.9375 10.3125" fill="none" fill-rule="evenodd"/><path d="M2268.01 1620.01C2266.07 1620.01 2264.27 1620.78 2262.62 1622.31 2260.96 1623.84 2259.61 1626.14 2258.57 1629.2 2257.53 1632.26 2257.01 1635.29 2257.01 1638.29 2257.01 1640.17 2257.21 1641.63 2257.62 1642.68 2258.02 1643.73 2258.56 1644.46 2259.22 1644.85 2259.89 1645.25 2260.72 1645.45 2261.72 1645.45 2263.97 1645.45 2265.9 1644.55 2267.49 1642.74 2269.08 1640.94 2270.44 1638.23 2271.57 1634.62 2272.69 1631 2273.26 1628.16 2273.26 1626.07 2273.26 1623.95 2272.82 1622.41 2271.96 1621.45 2271.09 1620.49 2269.78 1620.01 2268.01 1620.01ZM2269.63 1602.51C2273.11 1602.51 2275.71 1603.69 2277.44 1606.06 2279.17 1608.42 2280.04 1612 2280.04 1616.79 2280.04 1618.69 2279.87 1620.94 2279.54 1623.56 2279.2 1626.17 2278.64 1628.9 2277.85 1631.73 2277.06 1634.56 2276.14 1636.97 2275.1 1638.95 2274.06 1640.93 2272.9 1642.56 2271.63 1643.85 2270.36 1645.15 2268.9 1646.15 2267.24 1646.85 2265.58 1647.56 2263.71 1647.92 2261.63 1647.92 2258.51 1647.92 2256.03 1646.98 2254.21 1645.1 2252.39 1643.23 2251.47 1640.48 2251.47 1636.85 2251.47 1633.58 2252.16 1630.44 2253.54 1627.42 2254.91 1624.4 2256.8 1621.99 2259.19 1620.21 2261.59 1618.43 2264.21 1617.54 2267.07 1617.54 2268.57 1617.54 2269.88 1617.71 2271.01 1618.06 2272.13 1618.4 2273.38 1619.07 2274.76 1620.07L2274.82 1619.29C2274.88 1618.29 2274.91 1617.43 2274.91 1616.7 2274.91 1612.76 2274.39 1609.9 2273.35 1608.12 2272.31 1606.34 2270.68 1605.45 2268.47 1605.45 2266.95 1605.45 2265.54 1605.81 2264.24 1606.53 2262.94 1607.24 2261.66 1608.35 2260.41 1609.85L2258.16 1609.85 2258.16 1607.26C2260.14 1605.86 2261.68 1604.87 2262.77 1604.28 2263.87 1603.68 2264.96 1603.24 2266.05 1602.95 2267.15 1602.66 2268.34 1602.51 2269.63 1602.51Z" fill="#FF0000" fill-rule="evenodd"/><text fill="#000000" fill-opacity="0" font-family="Arial,Arial_MSFontService,sans-serif" font-size="45.4062" x="2251.47" y="1642.24">ğœ•</text><path d="M2306.97 1620.7C2305.97 1620.7 2304.98 1621.02 2304.01 1621.65 2303.04 1622.29 2301.97 1623.34 2300.78 1624.81 2299.59 1626.28 2298.62 1627.78 2297.87 1629.32 2297.12 1630.86 2296.49 1632.83 2295.97 1635.23L2295.68 1636.54C2295.37 1638 2295.22 1639.42 2295.22 1640.79 2295.22 1642.44 2295.58 1643.62 2296.29 1644.35 2297.01 1645.08 2298.21 1645.45 2299.87 1645.45 2300.73 1645.45 2301.54 1645.31 2302.31 1645.03 2303.08 1644.74 2303.87 1644.28 2304.67 1643.64 2305.47 1642.99 2306.23 1642.14 2306.95 1641.09 2307.67 1640.04 2308.33 1638.74 2308.93 1637.2 2309.54 1635.66 2310.01 1634 2310.34 1632.24 2310.67 1630.48 2310.84 1628.8 2310.84 1627.2 2310.84 1625.03 2310.53 1623.41 2309.92 1622.32 2309.3 1621.24 2308.32 1620.7 2306.97 1620.7ZM2301.5 1602.73 2303.31 1602.73 2297.81 1624.6 2298.22 1624.73C2300.24 1622.02 2302.13 1620.06 2303.9 1618.85 2305.67 1617.65 2307.45 1617.04 2309.22 1617.04 2311.49 1617.04 2313.25 1617.91 2314.51 1619.64 2315.77 1621.36 2316.4 1623.8 2316.4 1626.95 2316.4 1630.39 2315.71 1633.77 2314.33 1637.09 2312.94 1640.41 2311.02 1643.05 2308.56 1644.99 2306.1 1646.94 2303.35 1647.92 2300.31 1647.92 2297.54 1647.92 2295.08 1647.24 2292.93 1645.89L2290.06 1647.92 2288.06 1647.42 2296.15 1611.7C2296.63 1609.57 2296.87 1608.03 2296.87 1607.07 2296.87 1606.2 2296.61 1605.58 2296.08 1605.23 2295.54 1604.87 2294.59 1604.68 2293.22 1604.64L2293.59 1603.01Z" fill="#FF0000" fill-rule="evenodd"/><text fill="#000000" fill-opacity="0" font-family="Arial,Arial_MSFontService,sans-serif" font-size="45.1875" x="2288.06" y="1642.27">ğ‘</text><path d="M2333.86 1639.34C2333.02 1639.34 2332.19 1639.55 2331.37 1639.96 2330.55 1640.38 2329.78 1640.96 2329.05 1641.72 2328.33 1642.48 2327.66 1643.39 2327.07 1644.47 2326.47 1645.55 2325.97 1646.76 2325.58 1648.09 2327.52 1648.07 2329.19 1647.92 2330.59 1647.63 2331.99 1647.34 2333.14 1646.94 2334.03 1646.43 2334.93 1645.93 2335.59 1645.33 2336.01 1644.64 2336.43 1643.96 2336.64 1643.2 2336.64 1642.37 2336.64 1641.42 2336.4 1640.68 2335.93 1640.15 2335.45 1639.61 2334.76 1639.34 2333.86 1639.34ZM2334.85 1637.07C2336.81 1637.07 2338.29 1637.5 2339.31 1638.36 2340.33 1639.21 2340.84 1640.43 2340.84 1642 2340.84 1647.54 2335.6 1650.31 2325.12 1650.31 2325.04 1650.71 2324.98 1651.14 2324.93 1651.61 2324.89 1652.08 2324.86 1652.58 2324.86 1653.14 2324.86 1654.8 2325.2 1656.02 2325.89 1656.78 2326.57 1657.55 2327.63 1657.93 2329.06 1657.93 2329.81 1657.93 2330.52 1657.85 2331.2 1657.69 2331.87 1657.53 2332.53 1657.28 2333.18 1656.94 2333.83 1656.61 2334.49 1656.18 2335.15 1655.65 2335.8 1655.12 2336.49 1654.49 2337.21 1653.75L2338.93 1655.61C2337.16 1657.37 2335.39 1658.7 2333.62 1659.58 2331.85 1660.47 2329.95 1660.91 2327.92 1660.91 2326.72 1660.91 2325.66 1660.73 2324.74 1660.38 2323.81 1660.02 2323.03 1659.49 2322.4 1658.8 2321.76 1658.11 2321.28 1657.28 2320.95 1656.29 2320.62 1655.3 2320.46 1654.19 2320.46 1652.95 2320.46 1652.08 2320.53 1651.17 2320.69 1650.23 2320.84 1649.29 2321.08 1648.35 2321.4 1647.41 2321.72 1646.47 2322.12 1645.55 2322.59 1644.66 2323.07 1643.76 2323.62 1642.92 2324.27 1642.14 2325.55 1640.55 2327.1 1639.31 2328.91 1638.41 2330.73 1637.52 2332.71 1637.07 2334.85 1637.07Z" fill="#FF0000" fill-rule="evenodd"/><text fill="#000000" fill-opacity="0" font-family="Arial,Arial_MSFontService,sans-serif" font-size="23.8442" x="2320.46" y="1657.93">ğ‘’</text><path d="M2331.44 1601.83 2334.47 1601.83 2333.81 1609.01 2339.71 1604.86 2341.2 1607.43 2334.66 1610.48 2341.2 1613.55 2339.71 1616.1 2333.81 1611.95 2334.47 1619.13 2331.44 1619.13 2332.13 1611.95 2326.21 1616.1 2324.7 1613.55 2331.26 1610.48 2324.7 1607.43 2326.21 1604.86 2332.13 1609.01Z" fill="#FF0000" fill-rule="evenodd"/><text fill="#000000" fill-opacity="0" font-family="Arial,Arial_MSFontService,sans-serif" font-size="17.3037" x="2324.7" y="1616.97">âˆ—</text><path d="M2281.02 1711.49C2279.08 1711.49 2277.29 1712.26 2275.63 1713.79 2273.98 1715.32 2272.63 1717.62 2271.58 1720.68 2270.54 1723.74 2270.02 1726.77 2270.02 1729.77 2270.02 1731.65 2270.23 1733.11 2270.63 1734.17 2271.04 1735.22 2271.57 1735.94 2272.24 1736.34 2272.91 1736.73 2273.74 1736.93 2274.74 1736.93 2276.99 1736.93 2278.91 1736.03 2280.51 1734.23 2282.1 1732.43 2283.46 1729.72 2284.58 1726.1 2285.71 1722.49 2286.27 1719.64 2286.27 1717.56 2286.27 1715.43 2285.84 1713.89 2284.98 1712.93 2284.11 1711.97 2282.79 1711.49 2281.02 1711.49ZM2307.37 1708.52C2308.22 1708.52 2308.95 1708.64 2309.55 1708.87 2309.97 1709.04 2310.39 1709.31 2310.8 1709.7 2311.22 1710.08 2311.59 1710.62 2311.91 1711.31 2312.24 1711.99 2312.52 1712.76 2312.76 1713.62 2313 1714.47 2313.26 1715.7 2313.55 1717.31 2314.05 1719.99 2314.54 1722.82 2315.01 1725.79 2315.48 1728.76 2315.88 1731.51 2316.21 1734.06 2318.23 1731.14 2319.94 1728.29 2321.35 1725.49 2322.76 1722.7 2323.77 1720.27 2324.38 1718.21 2325 1716.15 2325.3 1714.47 2325.3 1713.18 2325.3 1712.2 2325.1 1711.54 2324.68 1711.18 2324.26 1710.83 2323.55 1710.62 2322.55 1710.56L2322.87 1709.02 2331.08 1709.02 2331.93 1710.59C2330.35 1714.92 2328.2 1719.56 2325.49 1724.49 2322.82 1729.33 2319.77 1734.14 2316.33 1738.93 2313.04 1743.49 2310.3 1746.8 2308.12 1748.84 2306.6 1750.23 2305.13 1751.23 2303.71 1751.84 2302.58 1752.3 2301.39 1752.52 2300.12 1752.52 2299.68 1752.52 2299.17 1752.49 2298.6 1752.42 2298.03 1752.34 2297.58 1752.24 2297.27 1752.12L2298.62 1746.06 2301.08 1746.06C2301.08 1747.39 2301.54 1748.06 2302.46 1748.06 2303.67 1748.06 2305.07 1747.3 2306.68 1745.79 2308.28 1744.28 2310.17 1742 2312.33 1738.96 2311.73 1735.32 2310.91 1730.92 2309.87 1725.77 2308.76 1720.27 2308.03 1716.87 2307.68 1715.56 2307.24 1713.97 2306.78 1712.96 2306.3 1712.52 2306.01 1712.25 2305.65 1712.12 2305.21 1712.12 2304.54 1712.12 2303.92 1712.39 2303.33 1712.93 2302.75 1713.47 2302.03 1714.41 2301.18 1715.74L2299.15 1714.4C2300.58 1712.25 2301.93 1710.74 2303.18 1709.85 2304.43 1708.97 2305.82 1708.52 2307.37 1708.52ZM2282.65 1693.99C2286.13 1693.99 2288.73 1695.18 2290.46 1697.54 2292.19 1699.9 2293.05 1703.48 2293.05 1708.27 2293.05 1710.17 2292.89 1712.43 2292.55 1715.04 2292.22 1717.65 2291.66 1720.38 2290.87 1723.21 2290.07 1726.05 2289.16 1728.45 2288.12 1730.43 2287.07 1732.41 2285.92 1734.05 2284.65 1735.34 2283.38 1736.63 2281.91 1737.63 2280.26 1738.34 2278.6 1739.05 2276.73 1739.4 2274.65 1739.4 2271.52 1739.4 2269.05 1738.46 2267.23 1736.59 2265.4 1734.71 2264.49 1731.96 2264.49 1728.34 2264.49 1725.07 2265.18 1721.92 2266.55 1718.9 2267.93 1715.88 2269.81 1713.48 2272.21 1711.7 2274.61 1709.92 2277.23 1709.02 2280.08 1709.02 2281.58 1709.02 2282.9 1709.2 2284.02 1709.54 2285.15 1709.88 2286.4 1710.56 2287.77 1711.56L2287.83 1710.77C2287.9 1709.77 2287.93 1708.91 2287.93 1708.18 2287.93 1704.24 2287.41 1701.38 2286.37 1699.6 2285.32 1697.82 2283.7 1696.93 2281.49 1696.93 2279.97 1696.93 2278.56 1697.29 2277.26 1698.01 2275.95 1698.73 2274.68 1699.84 2273.43 1701.34L2271.18 1701.34 2271.18 1698.74C2273.16 1697.35 2274.69 1696.35 2275.79 1695.76 2276.88 1695.17 2277.98 1694.72 2279.07 1694.43 2280.16 1694.14 2281.36 1693.99 2282.65 1693.99Z" fill="#FF0000" fill-rule="evenodd"/><text fill="#000000" fill-opacity="0" font-family="Arial,Arial_MSFontService,sans-serif" font-size="58.5312" x="2264.49" y="1745.21">ğœ•ğ‘¦</text><path d="M2248.33 1675.97 2297.83 1675.97 2347.33 1675.97 2347.33 1679.97 2297.83 1679.97 2248.33 1679.97Z" fill="#FF0000" fill-rule="evenodd"/><path d="M2407.92 1658.29 2407.92 1662.98 2373.98 1677.7 2407.92 1692.41 2407.92 1697.1 2369.29 1679.88 2369.29 1675.51Z" fill="#FF0000" fill-rule="evenodd"/><text fill="#000000" fill-opacity="0" font-family="Arial,Arial_MSFontService,sans-serif" font-size="38.8125" x="2369.29" y="1692.25">&lt;</text><path d="M2448.31 1655.48C2446.87 1655.48 2445.67 1655.9 2444.7 1656.76 2443.73 1657.61 2442.95 1658.84 2442.36 1660.45 2441.76 1662.05 2441.34 1664 2441.09 1666.3 2440.84 1668.61 2440.72 1671.21 2440.72 1674.1 2440.72 1680.89 2441.35 1685.88 2442.61 1689.05 2443.87 1692.23 2445.82 1693.82 2448.47 1693.82 2450.99 1693.82 2452.86 1692.33 2454.08 1689.34 2455.29 1686.35 2455.9 1681.72 2455.9 1675.45 2455.9 1670.65 2455.59 1666.77 2454.97 1663.8 2454.34 1660.84 2453.47 1658.71 2452.36 1657.41 2451.24 1656.12 2449.89 1655.48 2448.31 1655.48ZM2448.47 1652.82C2453.03 1652.82 2456.42 1654.58 2458.65 1658.1 2460.88 1661.62 2462 1666.95 2462 1674.07 2462 1681.45 2460.8 1687.02 2458.42 1690.8 2456.03 1694.59 2452.55 1696.48 2447.97 1696.48 2443.47 1696.48 2440.12 1694.71 2437.92 1691.16 2435.72 1687.62 2434.62 1682.25 2434.62 1675.04 2434.62 1671.21 2434.96 1667.89 2435.64 1665.1 2436.31 1662.31 2437.26 1660 2438.48 1658.18 2439.7 1656.36 2441.16 1655.01 2442.87 1654.13 2444.58 1653.26 2446.45 1652.82 2448.47 1652.82Z" fill="#FF0000" fill-rule="evenodd"/><text fill="#000000" fill-opacity="0" font-family="Arial,Arial_MSFontService,sans-serif" font-size="43.6562" x="2434.62" y="1691.02">0</text></g></svg>